<svg width="90" height="90" viewBox="0 0 90 90" fill="none" xmlns="http://www.w3.org/2000/svg">
<rect width="90" height="90" rx="2" fill="white"/>
<path d="M44.0001 31.707C45.213 31.707 46.2606 30.8181 46.6369 29.5104C45.9189 29.7376 45.0038 29.8747 44.0001 29.8747C42.9966 29.8747 42.0814 29.7376 41.3635 29.5104C41.7397 30.818 42.7872 31.707 44.0001 31.707Z" fill="#646A70"/>
<path d="M57.9651 33.3151C57.9075 33.1293 57.7877 32.9765 57.6315 32.8933L52.2932 30.0605C51.1577 29.6183 50.0009 29.269 48.8327 29.0137C48.7916 29.0045 48.7507 29 48.7103 29C48.4212 29 48.1622 29.2295 48.0978 29.566C47.6712 31.7247 46.0089 33.3408 43.9999 33.3408C41.991 33.3408 40.3286 31.7248 39.9022 29.566C39.837 29.2295 39.5785 29 39.2895 29C39.2492 29 39.2082 29.0045 39.1671 29.0137C37.9991 29.269 36.8422 29.6183 35.7049 30.0605L30.3685 32.8932C30.2114 32.9764 30.0907 33.1292 30.0359 33.315C29.9791 33.503 29.9893 33.7059 30.0693 33.8832L32.3868 39.1406C32.4953 39.3901 32.7159 39.5399 32.9494 39.5399C33.0097 39.5399 33.0708 39.5299 33.131 39.5091L35.705 38.6321V56.2727C35.705 56.6733 35.9893 57 36.3387 57H51.6614C52.0099 57 52.2933 56.6732 52.2933 56.2727V38.6323L54.8691 39.5093C54.9294 39.5301 54.9904 39.5401 55.0505 39.5401C55.2835 39.5401 55.5033 39.3904 55.6133 39.1408L57.9317 33.8834C58.0098 33.706 58.0209 33.5031 57.9651 33.3151Z" fill="#646A70"/>
<circle cx="55" cy="49" r="8" fill="#D8D8D8"/>
<path d="M51 48H59V50H51V48Z" fill="#646A70"/>
<path d="M56 45L56 53H54L54 45L56 45Z" fill="#646A70"/>
</svg>
