<svg width="146" height="141" viewBox="0 0 146 141" fill="none" xmlns="http://www.w3.org/2000/svg">
<ellipse cx="61.312" cy="112.385" rx="31.1295" ry="4.76013" fill="url(#paint0_radial)"/>
<ellipse cx="21.9137" cy="118.573" rx="11.1872" ry="2.38007" fill="url(#paint1_radial)"/>
<ellipse cx="108.006" cy="111.433" rx="37.9391" ry="13.3284" fill="url(#paint2_radial)"/>
<path d="M0.945312 0.945312V41.0346L41.9092 0.945312H0.945312ZM8.92529 22.1822V8.75491H22.6455L8.92529 22.1822Z" fill="url(#paint3_linear)"/>
<path d="M5.60031 0.945312V3.09035C5.60031 3.33199 5.50222 3.56374 5.32762 3.73461C5.15303 3.90548 4.91623 4.00147 4.66931 4.00147C4.42239 4.00147 4.18559 3.90548 4.01099 3.73461C3.8364 3.56374 3.73831 3.33199 3.73831 3.09035V0.945312H5.60031Z" fill="#0E6FC1"/>
<path d="M10.6543 0.945312V4.58979C10.6543 4.83143 10.5562 5.06318 10.3816 5.23405C10.207 5.40492 9.97021 5.50091 9.72329 5.50091C9.47638 5.50091 9.23958 5.40492 9.06498 5.23405C8.89038 5.06318 8.7923 4.83143 8.7923 4.58979V0.945312H10.6543Z" fill="#0E6FC1"/>
<path d="M15.7083 0.945312V3.09035C15.7083 3.33199 15.6102 3.56374 15.4356 3.73461C15.261 3.90548 15.0242 4.00147 14.7773 4.00147C14.5304 4.00147 14.2936 3.90548 14.119 3.73461C13.9444 3.56374 13.8463 3.33199 13.8463 3.09035V0.945312H15.7083Z" fill="#0E6FC1"/>
<path d="M20.7623 0.945312V4.58979C20.7623 4.83143 20.6642 5.06318 20.4896 5.23405C20.315 5.40492 20.0782 5.50091 19.8313 5.50091C19.5844 5.50091 19.3475 5.40492 19.173 5.23405C18.9984 5.06318 18.9003 4.83143 18.9003 4.58979V0.945312H20.7623Z" fill="#0E6FC1"/>
<path d="M25.8162 0.945312V3.09035C25.8162 3.33199 25.7181 3.56374 25.5435 3.73461C25.3689 3.90548 25.1321 4.00147 24.8852 4.00147C24.6383 4.00147 24.4015 3.90548 24.2269 3.73461C24.0523 3.56374 23.9542 3.33199 23.9542 3.09035V0.945312H25.8162Z" fill="#0E6FC1"/>
<path d="M30.8702 0.945312V4.58979C30.8702 4.83143 30.7721 5.06318 30.5976 5.23405C30.423 5.40492 30.1862 5.50091 29.9392 5.50091C29.6923 5.50091 29.4555 5.40492 29.2809 5.23405C29.1063 5.06318 29.0082 4.83143 29.0082 4.58979V0.945312H30.8702Z" fill="#0E6FC1"/>
<path d="M35.9242 0.945312V3.09035C35.9242 3.33199 35.8261 3.56374 35.6515 3.73461C35.4769 3.90548 35.2401 4.00147 34.9932 4.00147C34.7463 4.00147 34.5095 3.90548 34.3349 3.73461C34.1603 3.56374 34.0622 3.33199 34.0622 3.09035V0.945312H35.9242Z" fill="#0E6FC1"/>
<g clip-path="url(#clip0)">
<path d="M30.9106 63.0523L14.4112 53.8255C13.7814 53.4732 13.5411 52.7018 13.8632 52.0657L28.4562 23.254C28.6472 22.8768 28.974 22.5821 29.3736 22.4266L45.1695 16.2772H79.5862L95.2003 22.4255C95.5971 22.5819 95.9214 22.8754 96.1115 23.2504L110.706 52.0657C111.028 52.7018 110.788 53.4732 110.158 53.8255L93.6588 63.0523H30.9106Z" fill="#BF316A"/>
<path d="M51.5168 16.2772H45.1695L29.3736 22.4266C28.974 22.5821 28.6472 22.8768 28.4562 23.254L13.8632 52.0657C13.5412 52.7018 13.7812 53.4732 14.4112 53.8255L30.9107 63.0523H51.5168V16.2772Z" fill="#B62861"/>
<path d="M95.2004 22.4255L79.5862 16.2772H45.1695L29.3736 22.4266C29.1542 22.5121 28.9579 22.6406 28.7928 22.8006L31.0601 44.3611V63.0525V106.931C31.0601 107.644 31.509 108.283 32.1876 108.544C40.986 111.933 49.759 113.841 58.5069 114.278C58.8895 114.297 59.2531 114.113 59.4615 113.799L62.2843 109.544L65.111 113.808C65.319 114.121 65.6815 114.305 66.0632 114.287C74.864 113.871 83.6392 111.961 92.3888 108.547C93.0635 108.284 93.509 107.647 93.509 106.937V63.0523V44.3609L95.7685 22.7909C95.6066 22.6354 95.4146 22.5098 95.2004 22.4255Z" fill="url(#paint4_linear)"/>
<path d="M45.1695 16.2772L29.3736 22.4266C29.1542 22.5121 28.9579 22.6406 28.7928 22.8006L31.0601 44.3611V63.0525V106.931C31.0601 107.644 31.509 108.283 32.1876 108.544C40.986 111.933 49.759 113.841 58.5069 114.278C58.8895 114.297 59.2531 114.113 59.4615 113.799L62.2843 109.544L62.3151 109.59L62.7377 16.2772H45.1695Z" fill="url(#paint5_linear)"/>
<path d="M62.1211 103.093C49.4305 101.609 39.9125 91.0068 39.9125 78.4986V52.3058V33.6144L38.3678 18.925L29.3736 22.4265C29.1542 22.512 28.9579 22.6406 28.7928 22.8005L31.0601 44.3611V63.0525V106.931C31.0601 107.644 31.509 108.283 32.1876 108.544C40.986 111.932 49.759 113.841 58.5069 114.278C58.8895 114.297 59.2531 114.113 59.4615 113.799L62.2845 109.544L62.3153 109.59L62.3446 103.119C62.2703 103.111 62.1958 103.102 62.1211 103.093Z" fill="#BF316B"/>
<path d="M79.64 12.6658C80.0426 12.906 80.2342 13.3822 80.1051 13.8268L73.9001 35.3753C73.7559 35.8726 73.1487 36.0749 72.7246 35.763L63.6691 29.1238L74.4362 9.9878L74.6278 9.68018L79.64 12.6658Z" fill="#FF82B5"/>
<path d="M50.1332 9.9878L60.853 29.0416L51.847 35.7525C51.425 36.0664 50.8114 35.8663 50.6672 35.3669L44.4644 13.8268C44.3352 13.3822 44.5268 12.906 44.9294 12.6658L49.9416 9.68018L50.1332 9.9878Z" fill="#FF82B5"/>
<path d="M74.4362 9.56567L74.6279 9.67945L74.4362 9.98708L63.6691 29.1231L62.8198 30.633C62.5877 31.0455 61.9818 31.0457 61.7495 30.6332L60.853 29.0409L50.1332 9.98708L49.9416 9.67945L50.1332 9.56567L74.4362 9.56567Z" fill="#B62861"/>
<path d="M86.3515 67.8898L78.514 71.8223C78.2111 71.9742 77.8517 71.9742 77.5488 71.8223L69.7113 67.8898C69.3582 67.7126 69.136 67.3569 69.136 66.9686V51.9187C69.136 51.3471 69.6096 50.8835 70.1938 50.8835H85.8688C86.453 50.8835 86.9266 51.3471 86.9266 51.9187V66.9686C86.9266 67.3569 86.7046 67.7126 86.3515 67.8898Z" fill="#F971A7"/>
</g>
<path d="M21.4272 96.1703C19.1124 96.1703 16.8496 96.8421 14.9249 98.1006C13.0002 99.3592 11.5 101.148 10.6142 103.241C9.72834 105.334 9.49656 107.637 9.94816 109.859C10.3998 112.081 11.5145 114.122 13.1513 115.724C14.7881 117.325 16.8736 118.416 19.1439 118.858C21.4143 119.3 23.7675 119.073 25.9062 118.207C28.0448 117.34 29.8727 115.872 31.1587 113.988C32.4448 112.104 33.1312 109.89 33.1312 107.624C33.1312 104.587 31.8981 101.673 29.7032 99.5251C27.5083 97.3771 24.5313 96.1703 21.4272 96.1703ZM21.4272 113.076C21.0627 113.076 20.7063 112.97 20.4031 112.772C20.1 112.574 19.8637 112.292 19.7241 111.963C19.5846 111.633 19.5481 111.27 19.6192 110.92C19.6903 110.57 19.8658 110.249 20.1236 109.997C20.3814 109.744 20.7099 109.573 21.0674 109.503C21.425 109.433 21.7956 109.469 22.1324 109.606C22.4692 109.742 22.7571 109.973 22.9596 110.27C23.1621 110.567 23.2701 110.916 23.2701 111.272C23.27 111.751 23.0758 112.209 22.7302 112.548C22.3847 112.886 21.916 113.076 21.4272 113.076ZM21.4272 105.78C21.0627 105.78 20.7063 105.674 20.4032 105.476C20.1 105.278 19.8637 104.996 19.7242 104.667C19.5846 104.337 19.5481 103.974 19.6192 103.624C19.6903 103.274 19.8658 102.953 20.1235 102.701C20.3813 102.448 20.7097 102.277 21.0672 102.207C21.4248 102.137 21.7954 102.173 22.1322 102.309C22.469 102.446 22.7569 102.677 22.9594 102.974C23.162 103.27 23.2701 103.619 23.2701 103.976C23.27 104.454 23.0758 104.913 22.7303 105.251C22.3847 105.59 21.916 105.78 21.4272 105.78Z" fill="#3DA896"/>
<path d="M21.4273 98.8529C19.6546 98.8529 17.9217 99.3673 16.4478 100.331C14.9739 101.295 13.8251 102.665 13.1467 104.268C12.4683 105.87 12.2908 107.634 12.6367 109.336C12.9825 111.037 13.8361 112.6 15.0896 113.827C16.3431 115.053 17.9401 115.889 19.6787 116.227C21.4173 116.566 23.2194 116.392 24.8572 115.728C26.4949 115.064 27.8947 113.94 28.8796 112.497C29.8644 111.055 30.3901 109.359 30.3901 107.624C30.3901 105.298 29.4458 103.067 27.7649 101.422C26.0841 99.777 23.8043 98.8529 21.4273 98.8529ZM21.4273 113.076C21.0627 113.076 20.7063 112.97 20.4031 112.772C20.1 112.574 19.8637 112.292 19.7242 111.963C19.5846 111.633 19.5481 111.27 19.6192 110.92C19.6903 110.57 19.8659 110.249 20.1237 109.997C20.3814 109.744 20.7099 109.573 21.0675 109.503C21.425 109.433 21.7956 109.469 22.1324 109.606C22.4692 109.742 22.7571 109.973 22.9596 110.27C23.1621 110.567 23.2702 110.916 23.2701 111.272C23.27 111.751 23.0758 112.209 22.7303 112.548C22.3847 112.886 21.916 113.076 21.4273 113.076ZM21.4273 105.78C21.0627 105.78 20.7063 105.674 20.4032 105.476C20.1 105.278 19.8637 104.996 19.7242 104.666C19.5846 104.337 19.5481 103.974 19.6192 103.624C19.6903 103.274 19.8658 102.953 20.1235 102.701C20.3813 102.448 20.7097 102.277 21.0673 102.207C21.4248 102.137 21.7954 102.173 22.1322 102.309C22.469 102.446 22.7569 102.677 22.9595 102.974C23.162 103.27 23.2701 103.619 23.2701 103.976C23.27 104.454 23.0759 104.913 22.7303 105.251C22.3847 105.59 21.916 105.78 21.4273 105.78Z" fill="#086A59"/>
<g clip-path="url(#clip1)">
<path d="M116.914 106.217H136.824V81.0653H93.6599V83.2968L116.914 106.217Z" fill="#FF931E"/>
<path d="M116.914 106.217H136.824V81.0653H93.6599V83.2968L116.914 106.217Z" fill="#FC7718"/>
<path d="M132.264 81.0653H145.945V106.217H132.264V81.0653Z" fill="#DCDCFF"/>
<path d="M132.264 81.0653H145.945V106.217H132.264V81.0653Z" fill="url(#paint6_linear)"/>
<path d="M68.1215 93.6411V112.087C68.1215 115.777 71.0155 119.096 76.2704 121.434C80.9533 123.516 87.129 124.663 93.6599 124.663C100.191 124.663 106.367 123.516 111.049 121.434C116.304 119.096 119.198 115.777 119.198 112.087V93.6411H68.1215Z" fill="url(#paint7_linear)"/>
<path d="M93.6599 93.6411V124.663C100.191 124.663 106.367 123.516 111.049 121.434C116.304 119.096 119.198 115.777 119.198 112.087V93.6411H93.6599Z" fill="#F89B00"/>
<path d="M91.3797 103.986H95.9401V111.027H91.3797V103.986Z" fill="#FF931E"/>
<path d="M93.6599 103.986H95.9401V111.027H93.6599V103.986Z" fill="#FC7718"/>
<path d="M109.318 101.228H113.878V108.423H109.318V101.228Z" fill="#FF931E"/>
<path d="M109.318 101.228H113.878V108.423H109.318V101.228Z" fill="#FC7718"/>
<path d="M73.4413 101.228H78.0017V108.423H73.4413V101.228Z" fill="#FF931E"/>
<path d="M82.4106 103.372H86.9709V114.746H82.4106V103.372Z" fill="#FF931E"/>
<path d="M100.349 103.372H104.909V114.746H100.349V103.372Z" fill="#FF931E"/>
<path d="M100.349 103.372H104.909V114.746H100.349V103.372Z" fill="#FC7718"/>
<path d="M111.049 84.295C106.367 82.2123 100.191 81.0653 93.6599 81.0653C87.1289 81.0653 80.9533 82.2123 76.2704 84.295C71.0155 86.6323 68.1215 89.9514 68.1215 93.6411C68.1215 97.3308 71.0155 100.65 76.2704 102.987C80.9533 105.07 87.129 106.217 93.6599 106.217C100.191 106.217 106.367 105.07 111.049 102.987C116.304 100.65 119.198 97.3309 119.198 93.6411C119.198 89.9512 116.304 86.6323 111.049 84.295Z" fill="#FEDB41"/>
<path d="M111.049 84.295C106.367 82.2123 100.191 81.0653 93.6599 81.0653V106.217C100.191 106.217 106.367 105.07 111.049 102.987C116.304 100.65 119.198 97.3309 119.198 93.6411C119.198 89.9512 116.304 86.6323 111.049 84.295Z" fill="#FCC129"/>
<path d="M100.063 90.2107C98.3279 89.8449 96.0538 89.6433 93.6599 89.6433C91.2659 89.6433 88.9919 89.8447 87.2566 90.2107C86.2047 90.4325 83.0034 91.1076 83.0034 93.6412C83.0034 96.1749 86.2048 96.8498 87.2566 97.0716C88.9918 97.4375 91.2659 97.639 93.6599 97.639C96.0539 97.639 98.3279 97.4376 100.063 97.0716C101.115 96.8498 104.316 96.1747 104.316 93.6412C104.316 91.1076 101.115 90.4325 100.063 90.2107Z" fill="#FFB31E"/>
<path d="M100.063 90.2107C98.3279 89.8449 96.0538 89.6433 93.6599 89.6433V97.639C96.0539 97.639 98.3279 97.4376 100.063 97.0716C101.115 96.8498 104.316 96.1747 104.316 93.6412C104.316 91.1076 101.115 90.4325 100.063 90.2107Z" fill="#FC8518"/>
</g>
<defs>
<radialGradient id="paint0_radial" cx="0" cy="0" r="1" gradientUnits="userSpaceOnUse" gradientTransform="translate(61.312 112.385) rotate(90) scale(4.76013 31.1295)">
<stop stop-color="#C4C4C4"/>
<stop offset="1" stop-color="#C4C4C4" stop-opacity="0"/>
</radialGradient>
<radialGradient id="paint1_radial" cx="0" cy="0" r="1" gradientUnits="userSpaceOnUse" gradientTransform="translate(21.9137 118.573) rotate(90) scale(2.38007 11.1872)">
<stop stop-color="#C4C4C4"/>
<stop offset="1" stop-color="#C4C4C4" stop-opacity="0"/>
</radialGradient>
<radialGradient id="paint2_radial" cx="0" cy="0" r="1" gradientUnits="userSpaceOnUse" gradientTransform="translate(108.006 111.432) rotate(90) scale(13.3284 37.9391)">
<stop stop-color="#C4C4C4"/>
<stop offset="1" stop-color="#C4C4C4" stop-opacity="0"/>
</radialGradient>
<linearGradient id="paint3_linear" x1="7.80809" y1="0.997377" x2="20.9071" y2="41.204" gradientUnits="userSpaceOnUse">
<stop stop-color="#3E98DF"/>
<stop offset="1" stop-color="#125FA0"/>
</linearGradient>
<linearGradient id="paint4_linear" x1="36.6029" y1="7.47131" x2="61.2504" y2="114.526" gradientUnits="userSpaceOnUse">
<stop stop-color="#FA71A8"/>
<stop offset="1" stop-color="#AB1B55"/>
</linearGradient>
<linearGradient id="paint5_linear" x1="38.743" y1="13.0565" x2="69.5835" y2="125.804" gradientUnits="userSpaceOnUse">
<stop stop-color="#FA71A8"/>
<stop offset="1" stop-color="#D3246B"/>
</linearGradient>
<linearGradient id="paint6_linear" x1="139.105" y1="81.0653" x2="139.105" y2="106.217" gradientUnits="userSpaceOnUse">
<stop stop-color="#ACACDA"/>
<stop offset="1" stop-color="#768089"/>
</linearGradient>
<linearGradient id="paint7_linear" x1="68.1215" y1="108.957" x2="132.289" y2="125.349" gradientUnits="userSpaceOnUse">
<stop stop-color="#FCBF29"/>
<stop offset="1" stop-color="#E38F00"/>
</linearGradient>
<clipPath id="clip0">
<rect x="8.78088" y="9.56567" width="107.008" height="104.723" fill="white"/>
</clipPath>
<clipPath id="clip1">
<rect x="68.1215" y="64.7832" width="77.8238" height="76.1621" fill="white"/>
</clipPath>
</defs>
</svg>
