<svg width="90" height="90" viewBox="0 0 90 90" fill="none" xmlns="http://www.w3.org/2000/svg">
<rect width="90" height="90" rx="2" fill="rgb(250, 249, 248)"/>
<path d="M45.5 31C38.6076 31 33 36.6076 33 43.5C33 50.3924 38.6076 56 45.5 56C52.3924 56 58 50.3924 58 43.5C58 36.6076 52.3924 31 45.5 31ZM52.7917 44.0208C52.7917 44.3087 52.5587 44.5417 52.2708 44.5417H41.549L43.7849 46.7776C43.8826 46.8753 43.9375 47.0075 43.9375 47.1459V48.1875C43.9375 48.3981 43.8108 48.5883 43.6161 48.6687C43.4208 48.75 43.1975 48.7048 43.0484 48.5557L38.3609 43.8682C38.1575 43.6647 38.1575 43.3352 38.3609 43.1317L43.0484 38.4442C43.1481 38.3445 43.2814 38.2916 43.4167 38.2916C43.4838 38.2916 43.5515 38.3043 43.6161 38.3313C43.8109 38.4117 43.9375 38.602 43.9375 38.8125V39.8541C43.9375 39.9925 43.8826 40.1248 43.7849 40.2224L41.549 42.4584H52.2708C52.5587 42.4584 52.7917 42.6913 52.7917 42.9792V44.0208Z" fill="#D8D8D8"/>
</svg>
