<svg width="90" height="90" viewBox="0 0 90 90" fill="none" xmlns="http://www.w3.org/2000/svg">
<rect width="90" height="90" rx="2" fill="rgb(250, 249, 248)"/>
<path d="M55.5931 33.5538C55.3502 31.4 53.5175 29.7206 51.2999 29.7206C50.9007 29.7206 50.5095 29.7743 50.1338 29.8793C49.9922 27.1702 47.7437 25.0099 45 25.0099C42.2563 25.0099 40.0078 27.1702 39.8663 29.8793C39.4905 29.7743 39.0993 29.7205 38.7002 29.7205C36.4825 29.7205 34.6498 31.4 34.407 33.5537C31.9395 33.7783 30 35.8588 30 38.3837C30 41.0578 32.1757 43.2333 34.8499 43.2333H35.0087V40.5563C35.0087 38.1744 36.9465 36.2366 39.3284 36.2366H40.5326C41.0421 34.245 42.8517 32.7682 45 32.7682C47.1483 32.7682 48.9578 34.245 49.4674 36.2366H50.6716C53.0535 36.2366 54.9913 38.1744 54.9913 40.5563V43.2333H55.1501C57.8244 43.2333 60 41.0578 60 38.3837C60 35.8588 58.0605 33.7783 55.5931 33.5538Z" fill="#D8D8D8"/>
<path d="M38.9106 54.99H51.0895L51.6433 43.2913H38.3568L38.9106 54.99ZM46.1377 45.3016H47.8955V53.0424H46.1377V45.3016ZM42.0299 45.3016H43.7877V53.0424H42.0299V45.3016Z" fill="#646A70"/>
<path d="M53.2921 41.5335V40.5564C53.2921 39.1114 52.1166 37.9359 50.6717 37.9359H47.9117V37.379C47.9117 35.7735 46.6055 34.4674 45.0001 34.4674C43.3946 34.4674 42.0885 35.7735 42.0885 37.379V37.9359H39.3285C37.8836 37.9359 36.708 39.1114 36.708 40.5564V41.5335H53.2921ZM43.8463 37.3789C43.8463 36.7428 44.3639 36.2252 45 36.2252C45.6362 36.2252 46.1538 36.7427 46.1538 37.3789V37.9358H43.8462V37.3789H43.8463Z" fill="#646A70"/>
</svg>
