<svg width="90" height="90" viewBox="0 0 90 90" fill="none" xmlns="http://www.w3.org/2000/svg">
<rect width="90" height="90" rx="2" fill="rgb(250, 249, 248)"/>
<path d="M58.3916 26.6093C57.02 25.237 55.728 24.7501 54.4419 25.121C53.3509 25.4351 52.479 26.3075 51.5556 27.2304C51.5017 27.2843 51.4314 27.3593 51.3453 27.4542C51.8568 27.7571 52.3783 28.1444 52.9073 28.6149C53.3526 29.0104 53.7347 29.4053 54.0276 29.7305L54.6634 29.0948C55.0061 28.7514 55.5628 28.7514 55.9061 29.0948C56.2495 29.4382 56.2495 29.9948 55.9061 30.3376L53.42 32.8236C53.0773 33.167 52.5206 33.167 52.1773 32.8236C51.8339 32.4803 51.8339 31.9242 52.1773 31.5809L52.7849 30.9733C52.1632 30.2737 51.1935 29.3462 50.1763 28.8147C45.4045 34.5029 30.8923 52.6954 30.1915 53.5743C29.9126 53.9241 29.9413 54.4274 30.2571 54.7438C30.5747 55.0608 31.078 55.0872 31.4266 54.8094C33.323 53.2967 56.0765 35.1394 57.7705 33.4453C58.6934 32.5219 59.5658 31.65 59.8799 30.559C60.2508 29.2729 59.7639 27.981 58.3916 26.6093Z" fill="#646A70"/>
<path d="M51.3454 27.4532C51.0864 27.7392 50.6874 28.205 50.1765 28.8137C49.6837 28.5559 49.1798 28.3919 48.6982 28.3919C46.9035 28.3919 44.79 30.6764 44.1274 31.5565C42.8202 33.2996 40.4085 35.423 38.1515 35.423C35.8798 35.423 33.4646 33.2762 32.175 31.5559C31.8838 31.1674 31.9623 30.6166 32.3508 30.3254C32.7387 30.0342 33.2894 30.1128 33.5806 30.5006C34.2439 31.3813 36.3568 33.6652 38.1515 33.6652C39.9462 33.6652 42.059 31.3807 42.7223 30.5006C44.0289 28.7575 46.4412 26.6341 48.6982 26.6341C49.5425 26.6342 50.4284 26.9089 51.3454 27.4532Z" fill="#D0D0D0"/>
<path d="M40 53.75C40 53.3358 40.3358 53 40.75 53H45.25C45.6642 53 46 53.3358 46 53.75C46 54.1642 45.6642 54.5 45.25 54.5H40.75C40.3358 54.5 40 54.1642 40 53.75Z" fill="#C4C4C4"/>
<path d="M47 53.75C47 53.3358 47.3358 53 47.75 53H52.25C52.6642 53 53 53.3358 53 53.75C53 54.1642 52.6642 54.5 52.25 54.5H47.75C47.3358 54.5 47 54.1642 47 53.75Z" fill="#C4C4C4"/>
<path d="M54 53.75C54 53.3358 54.3358 53 54.75 53H59.25C59.6642 53 60 53.3358 60 53.75C60 54.1642 59.6642 54.5 59.25 54.5H54.75C54.3358 54.5 54 54.1642 54 53.75Z" fill="#C4C4C4"/>
</svg>
