<svg width="90" height="90" viewBox="0 0 90 90" fill="none" xmlns="http://www.w3.org/2000/svg">
<rect width="90" height="90" rx="2" fill="white"/>
<path d="M44.7578 29.2109C41.2362 29.2109 38.6055 30.6031 38.6055 31.8477C38.6055 33.0922 41.2362 34.4844 44.7578 34.4844C48.2795 34.4844 50.9102 33.0922 50.9102 31.8477C50.9102 30.6031 48.2795 29.2109 44.7578 29.2109Z" fill="#646A70"/>
<path d="M44.7578 24.8164C37.4767 24.8164 31.5742 27.9644 31.5742 31.8477C31.5742 35.731 37.4767 38.8789 44.7578 38.8789C52.039 38.8789 58 35.731 58 31.8477C58 27.9644 52.039 24.8164 44.7578 24.8164ZM44.7578 36.2422C40.2483 36.2422 36.8477 34.3531 36.8477 31.8477C36.8477 29.3422 40.2483 27.4531 44.7578 27.4531C49.2674 27.4531 52.668 29.3422 52.668 31.8477C52.668 34.3531 49.2674 36.2422 44.7578 36.2422Z" fill="#D8D8D8"/>
<path d="M31.5742 36.0453V39.1286C32.1394 38.9817 32.7215 38.8789 33.332 38.8789H35.7592C34.0376 38.1248 32.5928 37.1706 31.5742 36.0453Z" fill="#646A70"/>
<path d="M44.7578 40.6367H33.2734C30.3655 40.6367 28 43.0022 28 45.9101C28 48.8181 30.3655 51.1836 33.2734 51.1836H36.8477V47.6679C36.8477 47.1821 37.2408 46.789 37.7266 46.789C38.2124 46.789 38.6055 47.1821 38.6055 47.6679V51.1836H40.3633V45.9101C40.3633 45.4243 40.7564 45.0312 41.2422 45.0312C41.728 45.0312 42.1211 45.4243 42.1211 45.9101V51.1836H43.8789V47.6679C43.8789 47.1821 44.272 46.789 44.7578 46.789C45.2436 46.789 45.6367 47.1821 45.6367 47.6679V51.1577C46.2342 51.1351 46.8234 51.0972 47.3945 51.0303V45.9101C47.3945 45.4243 47.7876 45.0312 48.2734 45.0312C48.7592 45.0312 49.1523 45.4243 49.1523 45.9101V50.7405C54.3181 49.6761 58 46.7788 58 43.2734V36.0453C55.5057 38.8007 50.5351 40.6367 44.7578 40.6367ZM33.2734 46.789C32.788 46.789 32.3945 46.3955 32.3945 45.9101C32.3945 45.4247 32.788 45.0312 33.2734 45.0312C33.7588 45.0312 34.1523 45.4247 34.1523 45.9101C34.1523 46.3955 33.7588 46.789 33.2734 46.789Z" fill="#646A70"/>
<circle cx="54" cy="49" r="8" fill="#D8D8D8"/>
<path d="M50 48H58V50H50V48Z" fill="#646A70"/>
<path d="M55 45L55 53H53L53 45L55 45Z" fill="#646A70"/>
</svg>
