<svg width="90" height="90" viewBox="0 0 90 90" fill="none" xmlns="http://www.w3.org/2000/svg">
<rect width="90" height="90" rx="2" fill="white"/>
<path d="M55.2531 29.6954V36.896C55.2531 37.1652 55.0349 37.3835 54.7656 37.3835C54.4964 37.3835 54.2782 37.6017 54.2782 37.8709V51.4469C54.2782 51.7181 54.0582 51.938 53.787 51.938H36.213C35.9417 51.938 35.7218 51.7181 35.7218 51.4469V37.8709C35.7218 37.6017 35.5035 37.3835 35.2343 37.3835H30.7561C30.4848 37.3835 30.2649 37.1635 30.2649 36.8923V28.9378C30.2649 28.6855 30.4558 28.4743 30.7069 28.4491L39.9563 27.5245C40.2453 27.4951 40.4966 27.7222 40.4966 28.0132C40.4966 30.496 42.5165 32.5166 45 32.5166C47.4834 32.5166 49.5034 30.496 49.5034 28.0132C49.5034 27.7216 49.7553 27.495 50.0437 27.5245L54.1364 27.9335C54.2783 27.9477 54.392 28.0641 54.3938 28.2068C54.4 28.7206 54.6756 29.1934 55.1108 29.4527C55.1973 29.5043 55.2531 29.5947 55.2531 29.6954ZM58.9866 28.6454C58.8721 28.9975 58.631 29.2833 58.3338 29.4575C58.2501 29.5066 58.2001 29.5978 58.2001 29.6948V36.896C58.2001 37.1652 58.4183 37.3835 58.6876 37.3835H59.2438C59.5151 37.3835 59.735 37.1635 59.735 36.8923V28.9378C59.735 28.4667 59.109 28.2693 58.9866 28.6454ZM35.1296 53.4422C34.9375 53.2507 34.6268 53.2507 34.4346 53.4422L33.5751 54.3018C33.3835 54.4939 33.3835 54.8046 33.5751 54.9968L34.4346 55.8563C34.531 55.9521 34.6563 56 34.7821 56C35.2176 56 35.4386 55.4713 35.1296 55.1613L34.617 54.6493L35.1296 54.1372C35.3212 53.9451 35.3212 53.6344 35.1296 53.4422ZM56.2355 28.5142V48.3255C56.2355 48.5969 56.4553 48.8166 56.7266 48.8166C56.998 48.8166 57.2178 48.5969 57.2178 48.3255V28.5142C57.4498 28.7461 57.7535 28.7141 57.9337 28.535C58.1252 28.3429 58.1252 28.0322 57.9337 27.84C56.9913 26.8977 57.0161 26.9108 56.8973 26.8675C56.7977 26.8265 56.6533 26.8274 56.556 26.8675C56.4264 26.9147 56.4385 26.9211 55.5196 27.84C55.328 28.0322 55.328 28.3429 55.5196 28.535C55.6971 28.7121 56.0017 28.7478 56.2355 28.5142ZM56.3791 51.7428C56.5719 51.9343 56.8813 51.9344 57.0741 51.7428L57.9337 50.8832C58.1252 50.6911 58.1252 50.3804 57.9337 50.1882C57.7415 49.9967 57.4308 49.9967 57.2387 50.1882L56.7266 50.7009L56.2146 50.1882C56.0224 49.9967 55.7118 49.9967 55.5196 50.1882C55.328 50.3804 55.328 50.6911 55.5196 50.8832L56.3791 51.7428ZM59.18 54.602C59.1622 54.3794 59.0831 54.346 58.1793 53.4422C57.9871 53.2507 57.6764 53.2507 57.4843 53.4422C57.3038 53.6234 57.275 53.9278 57.5051 54.1581H34.9924C34.721 54.1581 34.5012 54.3779 34.5012 54.6493C34.5012 54.9207 34.721 55.1405 34.9924 55.1405H57.5051C57.2696 55.376 57.3089 55.6804 57.4843 55.8563C57.677 56.0479 57.9864 56.0479 58.1793 55.8563C59.0931 54.9424 59.0911 54.9515 59.1229 54.8832C59.1723 54.7941 59.19 54.6888 59.18 54.602Z" fill="#646A70"/>
<circle cx="55" cy="49" r="8" fill="#D8D8D8"/>
<path d="M51 48H59V50H51V48Z" fill="#646A70"/>
<path d="M56 45L56 53H54L54 45L56 45Z" fill="#646A70"/>
</svg>
