<svg width="90" height="90" viewBox="0 0 90 90" fill="none" xmlns="http://www.w3.org/2000/svg">
<rect width="90" height="90" rx="2" fill="url(#paint0_linear)"/>
<path d="M77.2228 59.9608H70.2552L69.7152 59.1295C68.849 57.7961 67.3509 57 65.7077 57C63.1118 57.0001 61 59.0098 61 61.4801V67H82V64.507C82 62.0002 79.857 59.9608 77.2228 59.9608Z" fill="url(#paint1_linear)"/>
<path d="M24.2922 57C22.649 57 21.1509 57.796 20.2848 59.1295L19.7448 59.9608H12.7772C10.143 59.9608 8 62.0002 8 64.507V67H29V61.4801C28.9999 59.0097 26.8881 57 24.2922 57Z" fill="url(#paint2_linear)"/>
<g clip-path="url(#clip0)">
<path d="M45 47.2173C48.5066 47.2173 51.3596 44.3644 51.3596 40.8577V39.561H38.6404V40.8577C38.6404 44.3644 41.4934 47.2173 45 47.2173Z" fill="url(#paint3_linear)"/>
<path d="M29.3513 47.2173C32.8579 47.2173 35.7108 44.3644 35.7108 40.8577V39.561H22.9917V40.8577C22.9917 44.3644 25.8446 47.2173 29.3513 47.2173Z" fill="url(#paint4_linear)"/>
<path d="M54.2892 40.8577C54.2892 44.3644 57.1421 47.2173 60.6487 47.2173C64.1554 47.2173 67.0083 44.3644 67.0083 40.8577V39.561H54.2892V40.8577Z" fill="url(#paint5_linear)"/>
<path d="M22.9917 20H35.7108V36.6313H22.9917V20Z" fill="url(#paint6_linear)"/>
<path d="M38.6404 20H51.3596V36.6313H38.6404V20Z" fill="url(#paint7_linear)"/>
<path d="M54.2892 20H67.0083V36.6313H54.2892V20Z" fill="url(#paint8_linear)"/>
<path d="M38.1552 58.3362H51.8448V70H38.1552V58.3362Z" fill="url(#paint9_linear)"/>
<path d="M52.8244 45.8599C51.1715 48.4363 48.2817 50.147 45 50.147C41.7183 50.147 38.8285 48.4363 37.1756 45.8599C35.5228 48.4363 32.633 50.147 29.3513 50.147C27.3772 50.147 25.5455 49.5275 24.0391 48.4736V76.8182H35.2256V55.4064H54.7746V76.8182H65.9612V48.4735C64.4547 49.5275 62.6229 50.1469 60.6489 50.1469C57.367 50.147 54.4773 48.4363 52.8244 45.8599Z" fill="url(#paint10_linear)"/>
</g>
<defs>
<linearGradient id="paint0_linear" x1="7.71428" y1="1.16108e-06" x2="82.9286" y2="100.929" gradientUnits="userSpaceOnUse">
<stop stop-color="#3EA997"/>
<stop offset="1" stop-color="#006251"/>
</linearGradient>
<linearGradient id="paint1_linear" x1="71.5" y1="74.1429" x2="64.6024" y2="56.7609" gradientUnits="userSpaceOnUse">
<stop stop-color="#006251"/>
<stop offset="1" stop-color="#3EA997"/>
</linearGradient>
<linearGradient id="paint2_linear" x1="21.5" y1="72" x2="18.77" y2="56.951" gradientUnits="userSpaceOnUse">
<stop stop-color="#006251"/>
<stop offset="1" stop-color="#3EA997"/>
</linearGradient>
<linearGradient id="paint3_linear" x1="41.6667" y1="35.8333" x2="42.5" y2="54.5" gradientUnits="userSpaceOnUse">
<stop stop-color="#23B9A0"/>
<stop offset="1" stop-color="#009279"/>
</linearGradient>
<linearGradient id="paint4_linear" x1="41.6667" y1="35.8333" x2="42.5" y2="54.5" gradientUnits="userSpaceOnUse">
<stop stop-color="#23B9A0"/>
<stop offset="1" stop-color="#009279"/>
</linearGradient>
<linearGradient id="paint5_linear" x1="41.6667" y1="35.8333" x2="42.5" y2="54.5" gradientUnits="userSpaceOnUse">
<stop stop-color="#23B9A0"/>
<stop offset="1" stop-color="#009279"/>
</linearGradient>
<linearGradient id="paint6_linear" x1="31" y1="5.5" x2="51.6667" y2="41.6667" gradientUnits="userSpaceOnUse">
<stop stop-color="#2CAF99"/>
<stop offset="1" stop-color="#4DD6BF"/>
</linearGradient>
<linearGradient id="paint7_linear" x1="31" y1="5.5" x2="51.6667" y2="41.6667" gradientUnits="userSpaceOnUse">
<stop stop-color="#2CAF99"/>
<stop offset="1" stop-color="#4DD6BF"/>
</linearGradient>
<linearGradient id="paint8_linear" x1="31" y1="5.5" x2="51.6667" y2="41.6667" gradientUnits="userSpaceOnUse">
<stop stop-color="#2CAF99"/>
<stop offset="1" stop-color="#4DD6BF"/>
</linearGradient>
<linearGradient id="paint9_linear" x1="38.3333" y1="55.8333" x2="49" y2="82" gradientUnits="userSpaceOnUse">
<stop stop-color="#035E4E"/>
<stop offset="1" stop-color="#006251"/>
</linearGradient>
<linearGradient id="paint10_linear" x1="45" y1="46" x2="45" y2="82" gradientUnits="userSpaceOnUse">
<stop stop-color="#004F41"/>
<stop offset="1" stop-color="#097361"/>
</linearGradient>
<clipPath id="clip0">
<rect x="20" y="20" width="50" height="50" fill="white"/>
</clipPath>
</defs>
</svg>
