<svg width="90" height="90" viewBox="0 0 90 90" fill="none" xmlns="http://www.w3.org/2000/svg">
<rect width="90" height="90" rx="2" fill="white"/>
<rect x="30.5" y="27.5" width="30" height="31" stroke="white"/>
<path d="M59.9385 56.6011C59.9246 54.8439 53.5569 53.47 45.7159 53.5323C37.8749 53.5946 31.5298 55.0696 31.5438 56.8268C31.5578 58.584 37.9255 59.9579 45.7665 59.8956C53.6075 59.8332 59.9525 58.3582 59.9385 56.6011Z" fill="#D0D0D0"/>
<path d="M50.6591 39.4612C51.8386 36.5237 50.4879 33.1553 47.6422 31.9377C44.7965 30.7201 41.5334 32.1143 40.3538 35.0518C39.1743 37.9893 40.525 41.3577 43.3707 42.5753C46.2164 43.7929 49.4795 42.3987 50.6591 39.4612Z" fill="#D8D8D8"/>
<path d="M54.5814 27.8768C49.5739 22.7077 41.4261 22.7077 36.4185 27.8768C31.411 33.0458 31.411 41.4565 36.4185 46.6256L45.5 56L54.5814 46.6256C59.5889 41.4565 59.5889 33.0458 54.5814 27.8768ZM38.1069 37.2542C38.1069 33.0462 41.4234 29.6226 45.5 29.6226C49.5765 29.6226 52.8931 33.0462 52.8931 37.2542C52.8931 41.4623 49.5765 44.8858 45.5 44.8858C41.4234 44.8858 38.1069 41.4622 38.1069 37.2542Z" fill="#646A70"/>
</svg>
