<svg width="90" height="90" viewBox="0 0 90 90" fill="none" xmlns="http://www.w3.org/2000/svg">
<rect width="90" height="90" rx="2" fill="url(#paint0_linear)"/>
<path d="M68.1377 68.0532C68.1155 65.2624 58.0021 63.0803 45.5488 63.1793C33.0954 63.2783 23.018 65.6209 23.0402 68.4117C23.0624 71.2025 33.1758 73.3846 45.6291 73.2856C58.0825 73.1866 68.1599 70.844 68.1377 68.0532Z" fill="url(#paint1_linear)"/>
<path d="M35.2922 51C33.649 51 32.1509 51.796 31.2848 53.1295L30.7448 53.9608H23.7772C21.143 53.9608 19 56.0002 19 58.507V61H40V55.4801C39.9999 53.0097 37.8881 51 35.2922 51Z" fill="url(#paint2_linear)"/>
<path d="M68.2228 53.9608H61.2552L60.7152 53.1295C59.849 51.7961 58.3509 51 56.7077 51C54.1118 51.0001 52 53.0098 52 55.4801V61H73V58.507C73 56.0002 70.857 53.9608 68.2228 53.9608Z" fill="url(#paint3_linear)"/>
<g clip-path="url(#clip0)">
<path d="M53.3211 41.1581C55.2236 36.5683 53.0451 31.3052 48.4552 29.4026C43.8653 27.5001 38.6022 29.6787 36.6997 34.2685C34.7972 38.8584 36.9757 44.1215 41.5656 46.024C46.1555 47.9265 51.4186 45.748 53.3211 41.1581Z" fill="url(#paint4_linear)"/>
<path d="M59.6474 23.0575C51.5708 14.9809 38.4292 14.9809 30.3524 23.0575C22.2758 31.1342 22.2758 44.2759 30.3524 52.3525L44.9999 67L59.6474 52.3525C67.7241 44.2759 67.7241 31.1342 59.6474 23.0575ZM33.0756 37.7097C33.0756 31.1347 38.4249 25.7854 44.9999 25.7854C51.575 25.7854 56.9243 31.1347 56.9243 37.7097C56.9243 44.2849 51.575 49.6341 44.9999 49.6341C38.4249 49.6341 33.0756 44.2848 33.0756 37.7097Z" fill="url(#paint5_linear)"/>
</g>
<defs>
<linearGradient id="paint0_linear" x1="7.71428" y1="1.16108e-06" x2="82.9286" y2="100.929" gradientUnits="userSpaceOnUse">
<stop stop-color="#3F98E0"/>
<stop offset="1" stop-color="#0C5898"/>
</linearGradient>
<linearGradient id="paint1_linear" x1="70.3259" y1="72.6043" x2="64.1529" y2="52.3333" gradientUnits="userSpaceOnUse">
<stop stop-color="#1B6BAD"/>
<stop offset="1" stop-color="#125FA0"/>
</linearGradient>
<linearGradient id="paint2_linear" x1="35.5" y1="65.5" x2="19.2654" y2="50.7087" gradientUnits="userSpaceOnUse">
<stop stop-color="#125FA0"/>
<stop offset="1" stop-color="#4FA6EC"/>
</linearGradient>
<linearGradient id="paint3_linear" x1="62.5" y1="68.1429" x2="55.6024" y2="50.7609" gradientUnits="userSpaceOnUse">
<stop stop-color="#105D9D"/>
<stop offset="1" stop-color="#3C95DD"/>
</linearGradient>
<linearGradient id="paint4_linear" x1="51" y1="49" x2="39" y2="28.5" gradientUnits="userSpaceOnUse">
<stop stop-color="#2477BA"/>
<stop offset="1" stop-color="#125FA0"/>
</linearGradient>
<linearGradient id="paint5_linear" x1="44.9999" y1="17.0001" x2="44.9999" y2="67" gradientUnits="userSpaceOnUse">
<stop stop-color="#90CDFC"/>
<stop offset="1" stop-color="#4DA1E5"/>
</linearGradient>
<clipPath id="clip0">
<rect x="20" y="17" width="50" height="50" fill="white"/>
</clipPath>
</defs>
</svg>
