<svg width="90" height="90" viewBox="0 0 90 90" fill="none" xmlns="http://www.w3.org/2000/svg">
<rect width="90" height="90" rx="2" fill="#FDFDFD"/>
<path d="M48.7613 38.9738C49.1734 38.256 49.4458 37.4984 49.5522 36.8139C49.8512 36.7873 50.25 36.3686 50.6753 34.8533C51.2269 32.9127 50.7152 32.5273 50.2101 32.5273C50.2566 32.3611 50.2965 32.195 50.3297 32.0355C51.2137 26.6855 48.5819 26.4994 48.5819 26.4994C48.5819 26.4994 48.1432 25.6621 46.9935 25.0241C46.2226 24.5655 45.1526 24.2133 43.737 24.3329C43.2785 24.3528 42.8465 24.4459 42.4411 24.5788C41.9227 24.7516 41.1177 24.8271 40.6857 25.1261C40.154 25.4651 36.3243 25.4543 35.8857 25.9261C35.8857 26.7261 36.699 28.9416 37.9684 29.9261C37.9684 30.9761 37.9684 31.5261 37.9684 32.0288C38.0016 32.195 38.0415 32.3611 38.088 32.5273C37.5962 32.5406 37.1044 32.946 37.6494 34.8533C38.0747 36.362 38.4735 36.7873 38.7725 36.8139C38.8789 37.4984 39.1447 38.256 39.5634 38.9738V41.6654C39.5501 41.7651 39.4969 41.8515 39.4105 41.8913C38.6396 42.2702 34.8382 44.1908 31.3092 47.0884C30.6645 47.6135 30.2857 48.4043 30.2857 49.2351V54.0196C30.2857 54.7972 30.9171 55.4286 31.6947 55.4286H56.2486C57.1429 55.4286 57.7815 54.531 57.7685 53.7143C57.7815 52.8167 57.7677 50.065 57.7685 49.1833C57.7692 48.3967 57.4657 47.7547 56.5714 46.8976C55.6772 46.0404 52 43.7547 48.5869 41.8913L48.7613 38.9738Z" fill="#646A70"/>
<circle cx="55" cy="49" r="8" fill="#D8D8D8"/>
<rect x="54" y="49" width="2" height="2" fill="#646A70"/>
<rect x="57" y="51" width="2" height="4" transform="rotate(90 57 51)" fill="#646A70"/>
<rect x="56" y="48" width="1" height="3" transform="rotate(90 56 48)" fill="#646A70"/>
<rect x="54" y="45" width="2" height="2" fill="#646A70"/>
</svg>
