<svg width="90" height="90" viewBox="0 0 90 90" fill="none" xmlns="http://www.w3.org/2000/svg">
<rect width="90" height="90" rx="2" fill="url(#paint0_linear)"/>
<path d="M52.0347 43.2683C52.73 42.057 53.1899 40.7785 53.3693 39.6234C53.874 39.5785 54.5469 38.872 55.2646 36.315C56.1955 33.0402 55.3319 32.3898 54.4796 32.3898C54.5581 32.1094 54.6254 31.829 54.6814 31.5598C56.173 22.5318 51.7319 22.2178 51.7319 22.2178C51.7319 22.2178 50.9917 20.8047 49.0515 19.7281C47.7506 18.9542 45.945 18.3598 43.5562 18.5617C42.7824 18.5954 42.0534 18.7524 41.3693 18.9767C40.4945 19.2683 39.1361 19.3956 38.4071 19.9003C37.5099 20.4723 31.0473 20.4541 30.3071 21.2503C30.3071 22.6003 31.6796 26.3389 33.8216 28.0003C33.8216 29.7722 33.8216 30.7003 33.8216 31.5486C33.8777 31.829 33.945 32.1094 34.0235 32.3898C33.1936 32.4122 32.3637 33.0963 33.2833 36.315C34.0011 38.8608 34.674 39.5785 35.1786 39.6234C35.3581 40.7785 35.8067 42.057 36.5132 43.2683V47.8103C36.4908 47.9785 36.4011 48.1243 36.2553 48.1916C34.9543 48.8309 28.5394 52.072 22.5842 56.9617C21.4964 57.8477 20.8571 59.1823 20.8571 60.5841V68.6581C20.8571 69.9703 21.9226 71.0357 23.2347 71.0357H64.6696C66.1786 71.0357 67.2563 69.521 67.2344 68.1428C67.2563 66.6282 67.2331 61.9846 67.2344 60.4968C67.2356 59.1694 66.7233 58.0861 65.2143 56.6396C63.7053 55.1932 57.5 51.3361 51.7403 48.1916L52.0347 43.2683Z" fill="url(#paint1_linear)"/>
<circle cx="62" cy="61" r="13" fill="url(#paint2_linear)"/>
<rect x="61" y="59" width="3" height="6" fill="#C4376F"/>
<rect x="66" y="65" width="3" height="7" transform="rotate(90 66 65)" fill="#C4376F"/>
<rect x="64" y="58" width="3" height="5" transform="rotate(90 64 58)" fill="#C4376F"/>
<rect x="61" y="53" width="3" height="3" fill="#C4376F"/>
<defs>
<linearGradient id="paint0_linear" x1="9" y1="1.26255e-06" x2="90" y2="99.6429" gradientUnits="userSpaceOnUse">
<stop stop-color="#FA71A8"/>
<stop offset="1" stop-color="#A2114B"/>
</linearGradient>
<linearGradient id="paint1_linear" x1="35.3691" y1="18.9361" x2="43.6143" y2="68.9145" gradientUnits="userSpaceOnUse">
<stop stop-color="#B61857"/>
<stop offset="1" stop-color="#69002B"/>
</linearGradient>
<linearGradient id="paint2_linear" x1="52.25" y1="51.25" x2="75" y2="74" gradientUnits="userSpaceOnUse">
<stop stop-color="#FBA7C9"/>
<stop offset="1" stop-color="#E66499"/>
</linearGradient>
</defs>
</svg>
