<svg width="90" height="90" viewBox="0 0 90 90" fill="none" xmlns="http://www.w3.org/2000/svg">
<rect width="90" height="90" rx="2" fill="url(#paint0_linear)"/>
<path d="M20 18H70V57.8125L57.5 70H20V18Z" fill="url(#paint1_linear)"/>
<path d="M57.5 57.8125H70L57.5 70V57.8125Z" fill="url(#paint2_linear)"/>
<rect x="48.3333" y="42.375" width="11.6667" height="2.4375" fill="url(#paint3_linear)"/>
<rect x="30" y="47.25" width="30" height="2.4375" fill="url(#paint4_linear)"/>
<rect x="30" y="52.125" width="30" height="2.4375" fill="url(#paint5_linear)"/>
<rect x="48.3333" y="37.5" width="11.6667" height="2.4375" fill="url(#paint6_linear)"/>
<rect x="48.3333" y="32.625" width="11.6667" height="2.4375" fill="url(#paint7_linear)"/>
<rect x="30" y="27.75" width="15" height="16.25" fill="#C8CCFA"/>
<rect x="36.6667" y="34.25" width="1.66667" height="4.875" fill="#4852B3"/>
<rect x="40" y="39.125" width="1.625" height="5" transform="rotate(90 40 39.125)" fill="#4852B3"/>
<rect x="38.3333" y="34.25" width="1.625" height="3.33333" transform="rotate(90 38.3333 34.25)" fill="#4852B3"/>
<rect x="36.6667" y="31" width="1.66667" height="1.625" fill="#4852B3"/>
<defs>
<linearGradient id="paint0_linear" x1="9" y1="1.26255e-06" x2="90" y2="99.6429" gradientUnits="userSpaceOnUse">
<stop stop-color="#8B92E2"/>
<stop offset="1" stop-color="#4A52A4"/>
</linearGradient>
<linearGradient id="paint1_linear" x1="22.5" y1="22.4687" x2="65.0265" y2="71.0705" gradientUnits="userSpaceOnUse">
<stop stop-color="#6068C2"/>
<stop offset="0.9999" stop-color="#1F2A99"/>
<stop offset="1" stop-color="#C4C4C4" stop-opacity="0"/>
</linearGradient>
<linearGradient id="paint2_linear" x1="63.75" y1="57.8125" x2="63.75" y2="70" gradientUnits="userSpaceOnUse">
<stop stop-color="#A4ACFB"/>
<stop offset="1" stop-color="#6C75CF"/>
</linearGradient>
<linearGradient id="paint3_linear" x1="54.1667" y1="42.375" x2="54.1667" y2="44.8125" gradientUnits="userSpaceOnUse">
<stop stop-color="#DFE2FF"/>
<stop offset="1" stop-color="#8B92E2"/>
</linearGradient>
<linearGradient id="paint4_linear" x1="45" y1="47.25" x2="45" y2="49.6875" gradientUnits="userSpaceOnUse">
<stop stop-color="#ECEEFF"/>
<stop offset="1" stop-color="#8B92E2"/>
</linearGradient>
<linearGradient id="paint5_linear" x1="45" y1="52.125" x2="45" y2="54.5625" gradientUnits="userSpaceOnUse">
<stop stop-color="#ECEEFF"/>
<stop offset="1" stop-color="#8B92E2"/>
</linearGradient>
<linearGradient id="paint6_linear" x1="54.1667" y1="37.5" x2="54.1667" y2="39.9375" gradientUnits="userSpaceOnUse">
<stop stop-color="#ECEEFF"/>
<stop offset="1" stop-color="#8B92E2"/>
</linearGradient>
<linearGradient id="paint7_linear" x1="54.1667" y1="32.625" x2="54.1667" y2="35.0625" gradientUnits="userSpaceOnUse">
<stop stop-color="#ECEEFF"/>
<stop offset="1" stop-color="#8B92E2"/>
</linearGradient>
</defs>
</svg>
