<svg width="90" height="90" viewBox="0 0 90 90" fill="none" xmlns="http://www.w3.org/2000/svg">
<rect width="90" height="90" fill="transparent"/>
<path d="M54.8411 39.0146L56.2392 37.0393C56.4932 36.6811 56.4082 36.1851 56.0501 35.9307L53.941 34.4373C53.5823 34.184 53.0863 34.2687 52.8325 34.6269L51.3992 36.6503C50.3415 36.1554 49.2056 35.8002 48.015 35.6117V34.7883C48.015 34.2616 48.4463 33.8303 48.9732 33.8303H49.5024C50.0291 33.8303 50.4602 33.3988 50.4602 32.8723V29.9585C50.4602 29.4313 50.0291 29 49.5024 29H42.4976C41.9707 29 41.54 29.4313 41.54 29.9585V32.8723C41.54 33.3988 41.9707 33.8303 42.4976 33.8303H43.0268C43.5538 33.8303 43.985 34.2616 43.985 34.7883V35.6117C42.7092 35.8146 41.4956 36.2066 40.3747 36.7591L38.9544 34.7547C38.7008 34.3964 38.2048 34.3117 37.8459 34.5656L35.7375 36.0586C35.3791 36.3124 35.2944 36.8089 35.548 37.167L36.98 39.1896C34.6617 41.5028 33.2256 44.6999 33.2256 48.2263C33.2256 55.27 38.956 61.0001 46.0001 61.0001C53.044 61.0001 58.7745 55.27 58.7745 48.2263C58.7744 44.6101 57.2636 41.3403 54.8411 39.0146ZM46 57.9345C40.6465 57.9345 36.2914 53.5792 36.2914 48.2262C36.2914 42.8729 40.6465 38.5176 46 38.5176C51.3534 38.5176 55.7086 42.8729 55.7086 48.2262C55.7086 53.5792 51.3534 57.9345 46 57.9345Z" fill="#646A70"/>
<path d="M54.0037 48.1621C53.9691 43.7778 50.3927 40.2209 46.0001 40.2209C45.9787 40.2209 45.9579 40.2228 45.9362 40.2228V48.1621V56.2299C45.9579 56.2299 45.9787 56.2311 46.0001 56.2311C50.4145 56.2311 54.0055 52.6406 54.0055 48.2263C54.0053 48.2043 54.0037 48.1831 54.0037 48.1621Z" fill="#D0D0D0"/>
</svg>
