<svg width="90" height="90" viewBox="0 0 90 90" fill="none" xmlns="http://www.w3.org/2000/svg">
<rect width="90" height="90" rx="2" fill="white"/>
<path d="M45 43C47.0713 43 48.7565 41.1369 48.7565 38.8468V38H41.2435V38.8468C41.2435 41.1369 42.9287 43 45 43Z" fill="#646A70"/>
<path d="M35.7565 43C37.8278 43 39.513 41.1369 39.513 38.8468V38H32V38.8468C32 41.1369 33.6852 43 35.7565 43Z" fill="#646A70"/>
<path d="M50.487 38.8468C50.487 41.1369 52.1722 43 54.2435 43C56.3148 43 58 41.1369 58 38.8468V38H50.487V38.8468Z" fill="#646A70"/>
<path d="M32 26H39.513V36H32V26Z" fill="#646A70"/>
<path d="M41.2435 26H48.7565V36H41.2435V26Z" fill="#646A70"/>
<path d="M50.487 26H58V36H50.487V26Z" fill="#646A70"/>
<path d="M41 49H49V57H41V49Z" fill="#646A70"/>
<path d="M49.8526 42C48.8275 43.2484 47.0353 44.0772 44.9999 44.0772C42.9646 44.0772 41.1724 43.2484 40.1473 42C39.1222 43.2484 37.33 44.0772 35.2946 44.0772C34.0703 44.0772 32.9343 43.7771 32 43.2664V57H38.9379V46.6255H51.0621V57H58V43.2664C57.0657 43.7771 55.9296 44.0772 54.7054 44.0772C52.6699 44.0772 50.8777 43.2484 49.8526 42Z" fill="#646A70"/>
</svg>
