<svg version="1.1" id="Layer_1" xmlns="http://www.w3.org/2000/svg" xmlns:xlink="http://www.w3.org/1999/xlink" x="0px" y="0px"
	 viewBox="0 0 22 22" style="enable-background:new 0 0 22 22;" xml:space="preserve">
<style type="text/css">
	.st0{fill:#999999;}
</style>
<g>
	<path class="st0" d="M9.9,4.9l8.2,8.3c0.1,0.1,0.1,0.1,0.1,0.2l2.6,7.6c0,0.2,0.1,0.1,0,0.2c-0.1,0.1,0,0-0.1,0c0,0-0.1,0-0.1,0
		l-7.5-2.7c-0.1,0-0.1-0.1-0.2-0.1l-8.3-8.2 M16.3,13.6L9.9,7L8.8,8.2l6.4,6.4l-0.5,0.5l-0.5,0.5L7.7,9.3l-1,1c0,0,6,5.8,6.5,6.3
		c0.7,0.7,0.7,0.8,0.7,0.8l0,0l0,0h0l2,0.7l2.7,0.9l-0.8-2.8L17,14.4c0,0-0.3-0.3-0.4-0.4C16.6,13.8,16.3,13.6,16.3,13.6z"/>
	<path class="st0" d="M2.7,8.3L0.9,6.5C0.6,6.2,0.4,5.7,0.4,5.2c0-0.5,0.2-1,0.5-1.3l2.8-2.8c0.7-0.7,1.9-0.7,2.6,0l1.8,1.9
		 M2.1,5.9l0.6,0.6L6.1,3L5.6,2.5c-0.3-0.3-1-0.3-1.3,0L2.1,4.6C2,4.7,1.9,5,1.9,5.2C1.9,5.5,2,5.7,2.1,5.9z"/>
</g>
</svg>