<svg width="15" height="15" viewBox="0 0 15 15" fill="none" xmlns="http://www.w3.org/2000/svg">
<path d="M14.8384 12.8027L8.85788 0.839355C8.59907 0.321621 8.07876 0 7.5 0C6.92124 0 6.40092 0.321621 6.14209 0.839355L0.161658 12.8027C-0.0753835 13.2768 -0.0505104 13.8291 0.228161 14.28C0.506804 14.7308 0.989558 15 1.51951 15H13.4805C14.0104 15 14.4932 14.7309 14.7718 14.28C15.0505 13.8291 15.0754 13.2768 14.8384 12.8027ZM13.775 13.6639C13.7445 13.7133 13.6547 13.8281 13.4805 13.8281H1.51951C1.34531 13.8281 1.25551 13.7133 1.22499 13.6639C1.19446 13.6145 1.13182 13.4827 1.20981 13.3267L7.19027 1.36336C7.27667 1.19054 7.43566 1.17188 7.5 1.17188C7.56433 1.17188 7.72333 1.19054 7.80972 1.36336L13.7902 13.3267C13.8681 13.4827 13.8055 13.6145 13.775 13.6639Z" fill="#FF0000"/>
<path d="M7.5 5.27528C7.17639 5.27528 6.91406 5.53761 6.91406 5.86122V9.55614C6.91406 9.87976 7.17639 10.1421 7.5 10.1421C7.82361 10.1421 8.08591 9.87976 8.08594 9.55617V5.86122C8.08594 5.53761 7.82361 5.27528 7.5 5.27528Z" fill="#FF0000"/>
<path d="M7.49975 12.3981C7.93661 12.3981 8.29076 12.044 8.29076 11.6071C8.29076 11.1703 7.93661 10.8161 7.49975 10.8161C7.06289 10.8161 6.70874 11.1703 6.70874 11.6071C6.70874 12.044 7.06289 12.3981 7.49975 12.3981Z" fill="#FF0000"/>
</svg>