<svg width="17" height="17" viewBox="0 0 17 17" fill="none" xmlns="http://www.w3.org/2000/svg">
<path d="M8.50001 12.896C8.26712 12.896 8.07816 13.0845 8.07816 13.3178C8.07816 13.5507 8.26708 13.7397 8.50001 13.7397C8.7333 13.7397 8.92226 13.5507 8.92226 13.3178C8.92226 13.0845 8.7333 12.896 8.50001 12.896Z" fill="#333333"/>
<path d="M15.9616 3.3241H15.1701V2.16067C15.1701 1.92781 14.9811 1.73882 14.7482 1.73882H7.23267L6.86883 1.37501C6.59507 1.10132 6.2311 0.950546 5.84398 0.950546H1.03843C0.46584 0.950579 0 1.41642 0 1.98904V15.011C0 15.5836 0.46584 16.0494 1.03843 16.0494H15.9616C16.5342 16.0494 17 15.5836 17 15.011V4.3625C17 3.78994 16.5342 3.3241 15.9616 3.3241ZM14.3264 2.58251V3.3241H9.06907C8.90724 3.3241 8.75517 3.26112 8.64075 3.14673L8.07646 2.58251H14.3264ZM16.1563 15.011C16.1563 15.1185 16.069 15.2058 15.9616 15.2058H1.03843C0.931016 15.2058 0.843658 15.1185 0.843658 15.011V6.57267H14.7482C14.9811 6.57267 15.1701 6.38367 15.1701 6.15082C15.1701 5.91753 14.9811 5.72897 14.7482 5.72897H0.843658V1.98904C0.843658 1.88163 0.931016 1.79427 1.03843 1.79427H5.84395C6.00578 1.79427 6.15785 1.85726 6.27227 1.97164L8.04419 3.74326C8.04419 3.74326 8.04419 3.74326 8.04419 3.74329C8.31795 4.01699 8.68192 4.16776 9.06904 4.16776H15.9615C16.069 4.16776 16.1563 4.25512 16.1563 4.3625V15.011H16.1563Z" fill="#333333"/>
<path d="M7.1073 12.896C6.87441 12.896 6.68546 13.0845 6.68546 13.3178C6.68546 13.5507 6.87438 13.7397 7.1073 13.7397C7.34059 13.7397 7.52954 13.5507 7.52954 13.3178C7.52958 13.0845 7.34062 12.896 7.1073 12.896Z" fill="#333333"/>
<path d="M9.8927 12.896C9.65982 12.896 9.47086 13.0845 9.47086 13.3178C9.47086 13.5507 9.65978 13.7397 9.8927 13.7397C10.126 13.7397 10.3149 13.5507 10.3149 13.3178C10.3149 13.0845 10.126 12.896 9.8927 12.896Z" fill="#333333"/>
</svg>
