<svg width="20" height="20" viewBox="0 0 20 20" fill="none" xmlns="http://www.w3.org/2000/svg">
<path d="M18.2422 7.61719H1.75781C0.788555 7.61719 0 8.40574 0 9.375V19.4141H20V9.375C20 8.40574 19.2114 7.61719 18.2422 7.61719Z" fill="url(#paint0_linear)"/>
<path d="M7.89895 0.585938H0V2.92969H10.2427L7.89895 0.585938Z" fill="#007460"/>
<path d="M0 4.10156V7.03285C0.49 6.66418 1.09879 6.44531 1.75781 6.44531H18.2422C18.9012 6.44531 19.51 6.66418 20 7.03285V4.10156H0Z" fill="#77EBD7"/>
<rect x="5" y="14" width="2" height="2" fill="#77EBD7"/>
<rect x="9" y="14" width="2" height="2" fill="#77EBD7"/>
<rect x="13" y="14" width="2" height="2" fill="#77EBD7"/>
<defs>
<linearGradient id="paint0_linear" x1="5.5" y1="7" x2="16" y2="22" gradientUnits="userSpaceOnUse">
<stop stop-color="#45BFAB"/>
<stop offset="1" stop-color="#058972"/>
</linearGradient>
</defs>
</svg>
