<svg width="20" height="16" viewBox="0 0 20 16" fill="none" xmlns="http://www.w3.org/2000/svg">
<path d="M19.3972 10.8514C18.6725 9.78957 17.5177 9.11484 16.2519 8.99547C16.6385 8.60605 16.8695 8.09922 16.9154 7.53852C17.2589 7.25902 17.4192 6.85281 17.3591 6.39496C17.314 6.05172 17.1363 5.82582 16.951 5.68938C16.9974 5.04117 16.8435 4.50691 16.4921 4.09832C15.9206 3.43398 14.9886 3.29453 14.3074 3.29453C14.1927 3.29453 14.0816 3.29789 13.9742 3.30422C13.892 2.96934 13.7432 2.67484 13.5271 2.42363C12.8841 1.67609 11.8296 1.51918 11.0581 1.51918C10.7346 1.51918 10.4447 1.54086 10.1796 1.58391C10.088 1.36672 9.96625 1.16836 9.81313 0.990391C9.10895 0.171797 7.94934 0 7.10055 0C5.84676 0 4.97348 0.296445 4.43078 0.906328C3.98188 1.41082 3.78328 2.11539 3.83898 3.00344C3.60297 3.1575 3.3618 3.43281 3.30426 3.8725C3.22953 4.44301 3.42902 4.93035 3.86883 5.2659C3.9207 6.04047 4.25672 6.73512 4.82801 7.23969C4.84371 7.25355 4.86016 7.26656 4.87617 7.28012C3.22715 7.38047 1.68371 8.25758 0.752578 9.62191C0.260234 10.3434 0 11.202 0 12.105V13.9087C0 14.9854 0.875977 15.8614 1.9527 15.8614H2.89949C3.1152 15.8614 3.29012 15.6865 3.29012 15.4708V12.4189C3.29012 12.2032 3.1152 12.0283 2.89949 12.0283C2.68379 12.0283 2.50887 12.2032 2.50887 12.4189V15.0802H1.9527C1.30676 15.0802 0.78125 14.5546 0.78125 13.9087V12.105C0.78125 11.3598 0.994492 10.6534 1.39789 10.0622C2.0925 9.04438 3.15551 8.35836 4.34254 8.13262C4.3984 8.36356 4.49879 8.6625 4.6791 8.96109C5.02551 9.53477 5.73324 10.2186 7.13777 10.2186C8.54215 10.2186 9.24981 9.53461 9.59617 8.96086C9.77617 8.66269 9.87652 8.36418 9.93242 8.13336C11.3614 8.40508 12.7268 9.40211 13.2547 10.7846C13.4153 11.2053 13.4941 11.6551 13.4941 12.105V13.9087C13.4941 14.5547 12.9686 15.0802 12.3226 15.0802H11.779V12.419C11.779 12.2032 11.6041 12.0284 11.3884 12.0284C11.1727 12.0284 10.9978 12.2032 10.9978 12.419V15.0802H6.30445C6.08875 15.0802 5.91383 15.2551 5.91383 15.4708C5.91383 15.6866 6.08875 15.8614 6.30445 15.8614L18.3887 15.8616C19.2771 15.8616 20 15.1386 20 14.2498V12.8404C20 12.1175 19.7916 11.4298 19.3972 10.8514ZM15.8998 4.60777C16.1455 4.89344 16.2288 5.3123 16.1471 5.8527C16.117 6.05207 16.2436 6.24168 16.4393 6.29019C16.4405 6.29051 16.5623 6.32805 16.5845 6.49672C16.614 6.72149 16.5374 6.87422 16.3361 6.99188C16.2164 7.06191 16.1427 7.19031 16.1427 7.3291C16.1427 7.80562 15.9629 8.21617 15.6227 8.51645C15.5286 8.59949 15.4243 8.67223 15.311 8.73379C14.6578 8.34949 13.9178 8.1193 13.1615 8.0682C13.6565 7.61566 13.9533 6.9818 14.0021 6.31453C14.3996 6.00453 14.5793 5.55785 14.5111 5.03574C14.4693 4.71731 14.3039 4.4282 14.0387 4.24441C14.0429 4.19113 14.0457 4.13875 14.0476 4.08684C14.0477 4.08535 14.0478 4.08383 14.0479 4.08234C14.1313 4.07797 14.218 4.07578 14.3075 4.07578C14.7312 4.07578 15.5016 4.14488 15.8998 4.60777ZM10.3677 2.34516C10.5756 2.31543 10.8066 2.30039 11.0581 2.30039C12.2176 2.30039 12.7317 2.69676 12.9349 2.93305C13.1373 3.16832 13.2479 3.47707 13.266 3.85477C13.2737 4.05707 13.238 4.25047 13.2289 4.45102C13.2169 4.63738 13.3341 4.81152 13.5213 4.84961C13.5711 4.86613 13.7093 4.93043 13.7364 5.13707C13.7732 5.41867 13.6733 5.61848 13.4217 5.76582C13.3021 5.8359 13.2286 5.96418 13.2286 6.10285C13.2286 6.23984 13.2159 6.37703 13.1889 6.51137C13.0398 7.25133 12.4461 7.78316 11.7309 7.97164C11.3218 7.73949 10.8825 7.56164 10.4243 7.44285C10.0667 7.35031 9.69957 7.29426 9.33062 7.27656C9.92477 6.77223 10.2805 6.04137 10.3325 5.2657C10.7688 4.9327 10.9679 4.41309 10.8971 3.87246C10.8465 3.48605 10.6459 3.25836 10.3759 3.0052C10.3875 2.87691 10.383 2.80262 10.3837 2.70277C10.3845 2.58348 10.379 2.46402 10.3677 2.34516ZM4.64297 5.05324C4.64297 4.91457 4.56945 4.78633 4.44984 4.71621C4.15316 4.54238 4.03531 4.30648 4.07887 3.97387C4.11348 3.7098 4.30129 3.63285 4.34977 3.61727C4.54719 3.57594 4.66387 3.39438 4.64035 3.19344C4.54797 2.4032 4.67379 1.8084 5.01441 1.42566C5.40031 0.992031 6.08273 0.781211 7.10059 0.781211C8.06922 0.781211 8.82223 1.03645 9.2209 1.49984C9.38531 1.69098 9.49645 1.92418 9.55465 2.19707C9.62691 2.53629 9.5909 2.86344 9.56012 3.20402C9.54117 3.39988 9.65695 3.57664 9.85152 3.61734C10.0077 3.6675 10.1018 3.81742 10.1223 3.97383C10.1554 4.22672 10.095 4.42355 9.93391 4.5798C9.88313 4.62902 9.82258 4.67434 9.75148 4.71594C9.63305 4.78531 9.55816 4.91582 9.55816 5.0532C9.55816 5.69473 9.31535 6.24828 8.85598 6.65399C8.37715 7.07688 7.73195 7.26996 7.10055 7.26996C6.41832 7.26996 5.79488 7.05121 5.34516 6.65399C4.88578 6.24832 4.64297 5.69477 4.64297 5.05324ZM7.13781 9.4373C6.31422 9.4373 5.71688 9.14914 5.36234 8.58078C5.24734 8.39641 5.17477 8.20891 5.12914 8.05238C5.12914 8.05238 9.12914 8.05258 9.1459 8.05285C9.10027 8.20938 9.02773 8.39652 8.91293 8.58063C8.55844 9.14906 7.96121 9.4373 7.13781 9.4373ZM13.9389 15.0033C14.1573 14.6821 14.2755 14.2972 14.2755 13.9088V12.1051C14.2755 10.8587 13.751 9.71277 12.8728 8.83902C14.3631 8.85453 15.8829 9.73555 16.4951 11.1242C16.678 11.5389 16.768 11.9914 16.768 12.4442V14.0661C16.768 14.6253 16.313 15.0803 15.7537 15.0803H13.8841C13.903 15.0551 13.9212 15.0293 13.9389 15.0033ZM19.2188 14.2498C19.2188 14.7077 18.8464 15.0803 18.3887 15.0803H17.2347C17.4387 14.7833 17.5493 14.4264 17.5493 14.0661V12.4442C17.5493 11.4855 17.2109 10.5786 16.6041 9.83981C17.4698 10.0304 18.2413 10.5437 18.7518 11.2916C19.0573 11.7396 19.2188 12.2752 19.2188 12.8404V14.2498Z" fill="#333333"/>
</svg>
