<svg width="20" height="20" viewBox="0 0 20 20" fill="none" xmlns="http://www.w3.org/2000/svg">
<g clip-path="url(#clip0)">
<path d="M11.5472 9.15479C11.8048 8.70619 11.9751 8.23267 12.0415 7.80484C12.2285 7.78823 12.4777 7.52655 12.7435 6.57951C13.0883 5.36663 12.7684 5.12572 12.4528 5.12572C12.4818 5.02188 12.5067 4.91803 12.5275 4.81834C13.08 1.47463 11.4351 1.35832 11.4351 1.35832C11.4351 1.35832 11.161 0.834959 10.4424 0.436205C9.96054 0.1496 9.2918 -0.0705449 8.40706 0.00422148C8.12046 0.0166825 7.85047 0.0748342 7.59709 0.157908C7.2731 0.265904 6.76999 0.313084 6.5 0.5C6.16771 0.711838 3.77414 0.705088 3.5 1C3.5 1.5 4.00831 2.88467 4.80166 3.5C4.80166 4.15625 4.80166 4.5 4.80166 4.81419C4.82243 4.91803 4.84735 5.02188 4.87643 5.12572C4.56905 5.13402 4.26168 5.3874 4.60228 6.57951C4.86812 7.52239 5.11734 7.78823 5.30426 7.80484C5.37072 8.23267 5.53686 8.70619 5.79855 9.15479V10.837C5.79024 10.8993 5.75701 10.9533 5.70301 10.9783C5.22118 11.215 2.84528 12.4154 0.639668 14.2264C0.23676 14.5546 0 15.0489 0 15.5681V17.1299C0 17.6159 0.3946 18.0105 0.880582 18.0105H13.3697C12.19 17.0219 11.4382 15.5349 11.4382 13.8775C11.4382 12.648 14 12 11.4382 10.9783L11.5472 9.15479Z" fill="url(#paint0_linear)"/>
<path d="M15.1443 10C12.4612 10 10.2886 12.1727 10.2886 14.8557C10.2886 17.5387 12.4661 19.7114 15.1443 19.7114C17.8273 19.7114 20 17.5387 20 14.8557C20 12.1727 17.8273 10 15.1443 10ZM17.5162 15.5167H15.8053V17.2277H14.4881V15.5167H12.7772V14.1995H14.4881V12.4886H15.8053V14.1995H17.5162V15.5167Z" fill="url(#paint1_linear)"/>
</g>
<defs>
<linearGradient id="paint0_linear" x1="6.44623" y1="-0.010498" x2="9.5" y2="18.5" gradientUnits="userSpaceOnUse">
<stop stop-color="#62B1EF"/>
<stop offset="1" stop-color="#026ECA"/>
</linearGradient>
<linearGradient id="paint1_linear" x1="15.1443" y1="10" x2="15.1443" y2="19.7114" gradientUnits="userSpaceOnUse">
<stop stop-color="#97D1FE"/>
<stop offset="1" stop-color="#3A95DF"/>
</linearGradient>
<clipPath id="clip0">
<rect width="20" height="20" fill="white"/>
</clipPath>
</defs>
</svg>
