<svg width="20" height="20" viewBox="0 0 20 20" fill="none" xmlns="http://www.w3.org/2000/svg">
<path d="M0 0H9V6.75V9H0V0Z" fill="url(#paint0_linear)"/>
<path d="M11 11H20V17.75V20H11V11Z" fill="url(#paint1_linear)"/>
<path d="M10 0H20V7.5V10H10V0Z" fill="url(#paint2_linear)"/>
<path d="M0 10H10V17.5V20H0V10Z" fill="url(#paint3_linear)"/>
<rect x="18" y="2" width="6" height="2" transform="rotate(90 18 2)" fill="url(#paint4_linear)"/>
<rect x="14" y="6" width="2" height="2" transform="rotate(90 14 6)" fill="url(#paint5_linear)"/>
<rect x="16" y="4" width="4" height="2" transform="rotate(90 16 4)" fill="url(#paint6_linear)"/>
<rect x="19" y="8" width="8" height="0.999999" transform="rotate(-180 19 8)" fill="#087865"/>
<rect x="13" y="18" width="5" height="1" transform="rotate(-90 13 18)" fill="#5BE3CC"/>
<rect x="15" y="18" width="5" height="1" transform="rotate(-90 15 18)" fill="#5BE3CC"/>
<rect x="17" y="18" width="5" height="1" transform="rotate(-90 17 18)" fill="#5BE3CC"/>
<rect x="13" y="13" width="5" height="1" fill="#5BE3CC"/>
<rect x="13" y="17" width="5" height="1" fill="#5BE3CC"/>
<rect x="7" y="3" width="5" height="1" transform="rotate(-180 7 3)" fill="#77EBD7"/>
<rect x="7" y="5" width="5" height="1" transform="rotate(-180 7 5)" fill="#77EBD7"/>
<rect x="7" y="7" width="5" height="1" transform="rotate(-180 7 7)" fill="#77EBD7"/>
<circle cx="5" cy="15" r="3" fill="#088771"/>
<path d="M8 15C8 16.6569 6.65685 18 5 18C3.34315 18 2 16.6569 2 15H5V12C6.65685 12 8 13.3431 8 15Z" fill="url(#paint7_linear)"/>
<defs>
<linearGradient id="paint0_linear" x1="0.45" y1="0.225" x2="9.5" y2="9.5" gradientUnits="userSpaceOnUse">
<stop stop-color="#3EA997"/>
<stop offset="1" stop-color="#14957F"/>
</linearGradient>
<linearGradient id="paint1_linear" x1="11.45" y1="11.225" x2="20.5" y2="20.5" gradientUnits="userSpaceOnUse">
<stop stop-color="#3EA997"/>
<stop offset="1" stop-color="#14957F"/>
</linearGradient>
<linearGradient id="paint2_linear" x1="10.5" y1="0.25" x2="20.5556" y2="10.5556" gradientUnits="userSpaceOnUse">
<stop stop-color="#3EA997"/>
<stop offset="1" stop-color="#14957F"/>
</linearGradient>
<linearGradient id="paint3_linear" x1="0.5" y1="10.25" x2="10.5556" y2="20.5556" gradientUnits="userSpaceOnUse">
<stop stop-color="#3EA997"/>
<stop offset="1" stop-color="#14957F"/>
</linearGradient>
<linearGradient id="paint4_linear" x1="19.5" y1="1.5" x2="23" y2="4.5" gradientUnits="userSpaceOnUse">
<stop stop-color="#6BDECB"/>
<stop offset="1" stop-color="#3EA997"/>
</linearGradient>
<linearGradient id="paint5_linear" x1="15" y1="6" x2="15" y2="8" gradientUnits="userSpaceOnUse">
<stop stop-color="#0B6A5A"/>
<stop offset="1" stop-color="#0E7A68"/>
</linearGradient>
<linearGradient id="paint6_linear" x1="18" y1="4" x2="18" y2="6" gradientUnits="userSpaceOnUse">
<stop stop-color="#149B84"/>
<stop offset="1" stop-color="#18BFA3"/>
</linearGradient>
<linearGradient id="paint7_linear" x1="3.5" y1="12.5" x2="7" y2="18" gradientUnits="userSpaceOnUse">
<stop stop-color="#79EEDA"/>
<stop offset="1" stop-color="#13AB92"/>
</linearGradient>
</defs>
</svg>
