<svg width="21" height="19" viewBox="0 0 21 19" fill="none" xmlns="http://www.w3.org/2000/svg">
<path d="M8.53355 13.8688C7.89358 13.4553 7.03959 13.6389 6.62607 14.2788C7.03959 13.6388 6.85601 12.7848 6.21608 12.3713C5.57611 11.9578 4.72213 12.1414 4.30861 12.7813C4.72213 12.1414 4.53854 11.2874 3.89862 10.8739C3.25865 10.4603 2.40466 10.6439 1.99114 11.2838L0.576762 13.4727C0.163243 14.1127 0.346829 14.9667 0.986754 15.3802C1.62672 15.7937 2.48071 15.6101 2.89423 14.9702C2.48071 15.6102 2.66429 16.4641 3.30422 16.8777C3.94419 17.2912 4.79817 17.1076 5.21169 16.4677C4.79817 17.1076 4.98176 17.9616 5.62168 18.3751C6.26161 18.7887 7.11564 18.6051 7.52916 17.9652L8.94354 15.7763C9.35706 15.1363 9.17347 14.2823 8.53355 13.8688Z" fill="url(#paint0_linear)"/>
<path d="M17.9075 10.0943L17.8705 10.0702L10.8408 5.49319L9.72074 7.19321C9.22031 7.96336 8.3735 8.42298 7.45406 8.42298C6.93373 8.42298 6.42715 8.2734 5.98914 7.99035C4.73796 7.18185 4.37776 5.5062 5.18511 4.25674L5.85797 3.21186L3.49724 2.64392L0 9.86407L0.857596 10.6022L0.88077 10.5663C1.38075 9.79253 2.22957 9.33062 3.15131 9.3307C3.67164 9.33074 4.17818 9.48036 4.6161 9.76333C5.03077 10.0312 5.35709 10.3987 5.57041 10.8301C6.05489 10.8483 6.52423 10.9963 6.93357 11.2608C7.34824 11.5287 7.67456 11.8962 7.88788 12.3275C8.37236 12.3457 8.84166 12.4937 9.25103 12.7583C10.5022 13.5668 10.8624 15.2424 10.0539 16.4936L9.30398 17.6542L10.465 18.4239C11.105 18.8375 11.959 18.6539 12.3725 18.014C12.786 17.374 12.6024 16.52 11.9625 16.1065L12.4318 16.4097C13.0718 16.8233 13.9257 16.6397 14.3393 15.9998C14.7528 15.3598 14.5692 14.5058 13.9293 14.0923L14.3986 14.3956C15.0385 14.8091 15.8925 14.6255 16.306 13.9856C16.7195 13.3456 16.5361 12.4918 15.8962 12.0782L16.3654 12.3814C17.0053 12.7949 17.8593 12.6113 18.2728 11.9714C18.6766 11.3466 18.511 10.518 17.9075 10.0943Z" fill="url(#paint1_linear)"/>
<path d="M19.1571 0.35498L9.0631 0.676502L6.29664 4.97248C5.88312 5.61245 6.06671 6.46643 6.70663 6.87995C7.3466 7.29347 8.20059 7.10988 8.61411 6.46996L10.4603 3.66794L10.8645 3.93109L18.1499 8.67463L21 6.56409L19.1571 0.35498Z" fill="url(#paint2_linear)"/>
<defs>
<linearGradient id="paint0_linear" x1="4.76015" y1="10.6528" x2="4.76015" y2="18.5962" gradientUnits="userSpaceOnUse">
<stop stop-color="#14957F"/>
<stop offset="1" stop-color="#006251"/>
</linearGradient>
<linearGradient id="paint1_linear" x1="-4.65238e-07" y1="5.1154e-07" x2="18" y2="19" gradientUnits="userSpaceOnUse">
<stop stop-color="#55C8B4"/>
<stop offset="1" stop-color="#14957F"/>
</linearGradient>
<linearGradient id="paint2_linear" x1="8" y1="1.36707e-07" x2="13.5378" y2="8.67463" gradientUnits="userSpaceOnUse">
<stop stop-color="#14957F"/>
<stop offset="1" stop-color="#006251"/>
</linearGradient>
</defs>
</svg>
