<svg width="18" height="18" viewBox="0 0 18 18" fill="none" xmlns="http://www.w3.org/2000/svg">
<path d="M12.6902 2.05802L9.17462 0.0464479C9.06641 -0.0154623 8.93362 -0.0154623 8.82538 0.0464479L5.30975 2.05802C5.20035 2.12063 5.13281 2.23707 5.13281 2.36317V5.93378C5.13281 6.05985 5.20035 6.17629 5.30975 6.23894L8.64844 8.14926V9.48755L7.52976 10.1276C7.36123 10.2241 7.30276 10.4389 7.39919 10.6074C7.46413 10.7209 7.58268 10.7844 7.70463 10.7844C7.76387 10.7844 7.82388 10.7694 7.87894 10.7379L9.00221 10.0952L10.1255 10.7379C10.1806 10.7695 10.2406 10.7844 10.2998 10.7844C10.4218 10.7844 10.5404 10.7209 10.6053 10.6074C10.7017 10.4389 10.6432 10.2241 10.4747 10.1277L9.35156 9.48502V8.14926L12.6902 6.23894C12.7997 6.17633 12.8672 6.05989 12.8672 5.93378V2.36317C12.8672 2.2371 12.7997 2.12067 12.6902 2.05802ZM9 0.756674L11.8078 2.36317L9.00003 3.96967L6.19228 2.36317L9 0.756674ZM12.1641 5.72991L9 7.54032L5.83594 5.72991V2.96937L8.64844 4.57861V5.47271C8.64844 5.66688 8.80587 5.82427 9 5.82427C9.19413 5.82427 9.35156 5.66688 9.35156 5.47271V4.57861L12.1641 2.96937V5.72991Z" fill="#333333"/>
<path d="M9.24852 6.39601C9.18316 6.33062 9.09246 6.293 9 6.293C8.90754 6.293 8.81684 6.33062 8.75144 6.39601C8.68605 6.4614 8.64844 6.5521 8.64844 6.64456C8.64844 6.73702 8.68602 6.82772 8.75144 6.89312C8.81687 6.95851 8.90754 6.99612 9 6.99612C9.09246 6.99612 9.18316 6.95851 9.24852 6.89312C9.31391 6.82772 9.35156 6.73702 9.35156 6.64456C9.35156 6.5521 9.31394 6.4614 9.24852 6.39601Z" fill="#333333"/>
<path d="M7.55743 11.7611L4.04181 9.74957C3.9336 9.68766 3.80081 9.68766 3.69257 9.74957L0.176941 11.7611C0.0675351 11.8238 0 11.9402 0 12.0663V15.6369C0 15.763 0.0675351 15.8794 0.176941 15.9421L3.69257 17.9536C3.74667 17.9846 3.80693 18 3.86719 18C3.92744 18 3.9877 17.9846 4.04181 17.9536L7.55743 15.9421C7.66684 15.8795 7.73437 15.763 7.73437 15.6369V12.0663C7.73437 11.9402 7.66684 11.8238 7.55743 11.7611ZM3.51562 17.0423L0.703125 15.433V12.6725L3.51562 14.2817V17.0423ZM3.86722 13.6728L1.05947 12.0663L3.86719 10.4598L6.67494 12.0663L3.86722 13.6728ZM7.03125 15.433L4.21875 17.0423V14.2817L7.03125 12.6725V15.433Z" fill="#333333"/>
<path d="M17.8231 11.7611L14.3074 9.74957C14.1992 9.68766 14.0664 9.68766 13.9582 9.74957L10.4426 11.7611C10.3332 11.8238 10.2656 11.9402 10.2656 12.0663V15.6369C10.2656 15.763 10.3332 15.8794 10.4426 15.9421L13.9582 17.9536C14.0123 17.9846 14.0726 18 14.1328 18C14.1931 18 14.2533 17.9846 14.3074 17.9536L17.8231 15.9421C17.9325 15.8795 18 15.763 18 15.6369V12.0663C18 11.9402 17.9325 11.8238 17.8231 11.7611ZM13.7812 17.0423L10.9687 15.433V12.6725L13.7812 14.2817V17.0423ZM14.1328 13.6728L11.3251 12.0663L14.1328 10.4598L16.9406 12.0663L14.1328 13.6728ZM17.2969 15.433L14.4844 17.0423V14.2817L17.2969 12.6725V15.433Z" fill="#333333"/>
</svg>
