<svg width="20" height="20" viewBox="0 0 20 20" fill="none" xmlns="http://www.w3.org/2000/svg">
<path d="M0 0H20V15L15 20H0V0Z" fill="url(#paint0_linear)"/>
<path d="M15 15H20L15 20V15Z" fill="url(#paint1_linear)"/>
<rect x="4" y="4" width="12" height="1" fill="url(#paint2_linear)"/>
<rect x="4" y="6" width="12" height="1" fill="url(#paint3_linear)"/>
<rect x="4" y="8" width="12" height="1" fill="url(#paint4_linear)"/>
<rect x="4" y="10" width="12" height="1" fill="url(#paint5_linear)"/>
<rect x="4" y="13" width="6" height="1" fill="url(#paint6_linear)"/>
<rect x="4" y="15" width="6" height="1" fill="url(#paint7_linear)"/>
<defs>
<linearGradient id="paint0_linear" x1="1" y1="0.5" x2="18.5" y2="20" gradientUnits="userSpaceOnUse">
<stop stop-color="#6068C2"/>
<stop offset="0.9999" stop-color="#1F2A99"/>
<stop offset="1" stop-color="#C4C4C4" stop-opacity="0"/>
</linearGradient>
<linearGradient id="paint1_linear" x1="17.5" y1="15" x2="17.5" y2="20" gradientUnits="userSpaceOnUse">
<stop stop-color="#6570DE"/>
<stop offset="1" stop-color="#6C75CF"/>
</linearGradient>
<linearGradient id="paint2_linear" x1="10" y1="4" x2="10" y2="5" gradientUnits="userSpaceOnUse">
<stop stop-color="#DFE2FF"/>
<stop offset="1" stop-color="#8B92E2"/>
</linearGradient>
<linearGradient id="paint3_linear" x1="10" y1="6" x2="10" y2="7" gradientUnits="userSpaceOnUse">
<stop stop-color="#ECEEFF"/>
<stop offset="1" stop-color="#8B92E2"/>
</linearGradient>
<linearGradient id="paint4_linear" x1="10" y1="8" x2="10" y2="9" gradientUnits="userSpaceOnUse">
<stop stop-color="#ECEEFF"/>
<stop offset="1" stop-color="#8B92E2"/>
</linearGradient>
<linearGradient id="paint5_linear" x1="10" y1="10" x2="10" y2="11" gradientUnits="userSpaceOnUse">
<stop stop-color="#ECEEFF"/>
<stop offset="1" stop-color="#8B92E2"/>
</linearGradient>
<linearGradient id="paint6_linear" x1="7" y1="13" x2="7" y2="14" gradientUnits="userSpaceOnUse">
<stop stop-color="#6A73D0"/>
<stop offset="1" stop-color="#8B92E2"/>
</linearGradient>
<linearGradient id="paint7_linear" x1="7" y1="15" x2="7" y2="16" gradientUnits="userSpaceOnUse">
<stop stop-color="#6A73D0"/>
<stop offset="1" stop-color="#8B92E2"/>
</linearGradient>
</defs>
</svg>
