<svg width="17" height="17" viewBox="0 0 17 17" fill="none" xmlns="http://www.w3.org/2000/svg">
<g clip-path="url(#clip0)">
<path d="M5.73855 10.9798L5.10544 13.26H3.31686C3.08902 13.26 2.90431 13.4447 2.90431 13.6726C2.90431 13.9004 3.08902 14.0851 3.31686 14.0851H5.41907H5.41911C5.43617 14.0851 5.45294 14.0838 5.46951 14.0817C5.47376 14.0812 5.47791 14.0805 5.48216 14.0798C5.49597 14.0777 5.50955 14.0749 5.52287 14.0715C5.52503 14.0709 5.52725 14.0707 5.52938 14.0701L8.11184 13.3531C8.18041 13.3341 8.24286 13.2976 8.2932 13.2473L16.241 5.29951C16.7831 4.7574 16.7831 3.87533 16.241 3.33326L15.7584 2.85062C15.4958 2.58798 15.1466 2.44338 14.7753 2.44338C14.4039 2.44338 14.0547 2.58798 13.7921 2.85062L13.4943 3.14848V0.899504C13.4943 0.403517 13.091 0 12.5952 0H4.16317C4.05376 0 3.94881 0.043496 3.87145 0.120826L0.473212 3.51909C0.395849 3.59646 0.352386 3.70138 0.352386 3.81082V16.1005C0.352386 16.5965 0.755903 17 1.25189 17H12.5953C13.091 17 13.4943 16.5965 13.4943 16.1005V10.3833C13.4943 10.1554 13.3096 9.97071 13.0818 9.97071C12.8539 9.97071 12.6692 10.1554 12.6692 10.3833V16.1005C12.6692 16.1415 12.6361 16.1749 12.5953 16.1749H1.25186C1.21085 16.1749 1.17748 16.1415 1.17748 16.1005V4.2234H3.67664C4.17247 4.2234 4.57575 3.82005 4.57575 3.32429V0.825096H12.5952C12.636 0.825096 12.6692 0.858465 12.6692 0.899471V3.94924C12.6692 3.95704 12.6699 3.96468 12.6703 3.97235L9.96142 6.68125H3.31686C3.08902 6.68125 2.90431 6.86596 2.90431 7.0938C2.90431 7.32164 3.08902 7.50635 3.31686 7.50635H9.13632L6.67206 9.97061H3.31686C3.08902 9.97061 2.90431 10.1553 2.90431 10.3832C2.90431 10.611 3.08902 10.7957 3.31686 10.7957H5.84696L5.84437 10.7983C5.79404 10.8487 5.75758 10.9112 5.73855 10.9798ZM3.75065 3.32422C3.75065 3.36503 3.71745 3.39823 3.67664 3.39823H1.76106L3.75065 1.40864V3.32422ZM14.3756 3.43399C14.4824 3.32728 14.6243 3.26848 14.7753 3.26848C14.9263 3.26848 15.0682 3.32728 15.175 3.43403L15.6576 3.91667C15.878 4.13707 15.878 4.49566 15.6576 4.716L15.1424 5.23124L13.8604 3.94924L14.3756 3.43399ZM13.2769 4.53268L14.5589 5.81469L8.00154 12.3721L6.71954 11.0901L13.2769 4.53268ZM6.34438 11.8819L7.20972 12.7473L6.01175 13.0798L6.34438 11.8819Z" fill="#333333"/>
</g>
<defs>
<clipPath id="clip0">
<rect width="17" height="17" fill="white"/>
</clipPath>
</defs>
</svg>
