<svg width="20" height="19" viewBox="0 0 20 19" fill="none" xmlns="http://www.w3.org/2000/svg">
<path d="M9.19669 6.64819C7.82195 6.64819 6.70361 7.76653 6.70361 9.14127C6.70361 10.516 7.82195 11.6343 9.19669 11.6343C10.5714 11.6343 11.6898 10.516 11.6898 9.14127C11.6898 7.76653 10.5714 6.64819 9.19669 6.64819Z" fill="url(#paint0_linear)"/>
<path d="M9.19668 0C4.15618 0 0 4.10078 0 9.14127C0 14.1818 4.15618 18.2825 9.19668 18.2825H17.5069C17.9663 18.2825 18.3379 17.9109 18.3379 17.4515V9.14127C18.3379 4.10078 14.2372 0 9.19668 0ZM9.19668 13.2964C6.90565 13.2964 5.04155 11.4323 5.04155 9.14127C5.04155 6.85025 6.90565 4.98615 9.19668 4.98615C11.4877 4.98615 13.3518 6.85025 13.3518 9.14127C13.3518 11.4323 11.4877 13.2964 9.19668 13.2964ZM14.1828 14.9584C13.7239 14.9584 13.3518 14.5864 13.3518 14.1274C13.3518 13.6684 13.7239 13.2964 14.1828 13.2964C14.6418 13.2964 15.0138 13.6684 15.0138 14.1274C15.0138 14.5864 14.6418 14.9584 14.1828 14.9584Z" fill="url(#paint1_linear)"/>
<path d="M17.5069 1.66211H16.9742C18.5582 3.30876 19.6238 5.45214 19.913 7.83513C19.9652 7.72632 20 7.60809 20 7.47928V4.15518C20 2.78045 18.8817 1.66211 17.5069 1.66211Z" fill="#B3B3B3"/>
<defs>
<linearGradient id="paint0_linear" x1="9.19669" y1="6.64819" x2="9.19669" y2="11.6343" gradientUnits="userSpaceOnUse">
<stop stop-color="#5B5B5B"/>
<stop offset="1" stop-color="#848484"/>
</linearGradient>
<linearGradient id="paint1_linear" x1="3" y1="-2" x2="9.16897" y2="18.2825" gradientUnits="userSpaceOnUse">
<stop stop-color="#AFAFAF"/>
<stop offset="1" stop-color="#656566"/>
</linearGradient>
</defs>
</svg>
