<svg width="14" height="18" viewBox="0 0 14 18" fill="none" xmlns="http://www.w3.org/2000/svg">
<path d="M13.6798 16.9355L13.3283 4.2793C13.3119 3.69346 12.8487 3.23437 12.2737 3.23437H10.1644V3.16406C10.1644 1.41943 8.74494 0 7.00031 0C5.25568 0 3.83625 1.41943 3.83625 3.16406V3.23437H1.72688C1.15189 3.23437 0.688676 3.69346 0.672334 4.2793L0.650361 5.07114C0.645005 5.26532 0.797852 5.42696 0.992036 5.43232C1.18581 5.43918 1.34785 5.28483 1.35321 5.09064L1.37518 4.2988C1.38081 4.09624 1.53531 3.93749 1.72688 3.93749H3.83625V4.94521C3.40724 5.09174 3.09797 5.49865 3.09797 5.97655C3.09797 6.5775 3.58686 7.06639 4.18781 7.06639C4.78863 7.06639 5.27766 6.5775 5.27766 5.97655C5.27766 5.49865 4.96825 5.09188 4.53938 4.94521V3.93749H9.4611V4.94521C9.03223 5.09188 8.72296 5.49865 8.72296 5.97655C8.72296 6.5775 9.21185 7.06639 9.81267 7.06639C10.4136 7.06639 10.9025 6.5775 10.9025 5.97655C10.9025 5.49865 10.5932 5.09188 10.1642 4.94521V3.93749H12.2736C12.4652 3.93749 12.6197 4.09624 12.6253 4.2988L12.9769 16.955C12.9793 17.0402 12.9461 17.1226 12.8833 17.1871C12.8155 17.2569 12.7214 17.2968 12.6253 17.2968H1.37532C1.27919 17.2968 1.18512 17.2569 1.11714 17.1871C1.05452 17.1226 1.02129 17.0402 1.02362 16.955L1.26532 8.2536C1.27068 8.05942 1.11769 7.89778 0.923646 7.89243C0.729325 7.88638 0.567827 8.03992 0.562471 8.2341L0.320772 16.9355C0.313082 17.2121 0.416902 17.4755 0.613145 17.6774C0.812547 17.8824 1.09036 18 1.37532 18H12.6253C12.9101 18 13.1879 17.8824 13.3873 17.6774C13.5836 17.4755 13.6875 17.2121 13.6798 16.9355ZM4.18781 6.36327C3.97454 6.36327 3.8011 6.18968 3.8011 5.97655C3.8011 5.76328 3.97454 5.58983 4.18781 5.58983C4.40109 5.58983 4.57453 5.76328 4.57453 5.97655C4.57453 6.18968 4.40109 6.36327 4.18781 6.36327ZM9.8128 6.36327C9.59953 6.36327 9.42609 6.18968 9.42609 5.97655C9.42609 5.76328 9.59953 5.58983 9.8128 5.58983C10.0259 5.58983 10.1995 5.76328 10.1995 5.97655C10.1995 6.18968 10.0261 6.36327 9.8128 6.36327ZM4.53938 3.23437V3.16406C4.53938 1.80711 5.64336 0.703124 7.00031 0.703124C8.35726 0.703124 9.46124 1.80711 9.46124 3.16406V3.23437H4.53938Z" fill="#333333"/>
<path d="M9.63712 16.2422C9.63712 16.4362 9.79449 16.5937 9.98868 16.5937H11.922C12.1162 16.5937 12.2736 16.4362 12.2736 16.2422C12.2736 16.048 12.1162 15.8906 11.922 15.8906H9.98868C9.79449 15.8906 9.63712 16.048 9.63712 16.2422Z" fill="#333333"/>
<path d="M0.932844 7.0131C0.941359 7.01379 0.949873 7.01406 0.95825 7.01406C1.14104 7.01406 1.29539 6.87275 1.30858 6.6875V6.68736C1.32245 6.49359 1.1766 6.3255 0.982969 6.31177C0.788923 6.29776 0.621106 6.44374 0.607236 6.63737C0.593366 6.83114 0.73921 6.99937 0.932844 7.0131Z" fill="#333333"/>
</svg>
