<svg width="20" height="21" viewBox="0 0 20 21" fill="none" xmlns="http://www.w3.org/2000/svg">
<g clip-path="url(#clip0)">
<path d="M9.99998 3.13194C10.8663 3.13194 11.6146 2.55195 11.8834 1.69873C11.3706 1.84696 10.7169 1.93643 9.99998 1.93643C9.28316 1.93643 8.62948 1.84696 8.1167 1.69873C8.38537 2.55187 9.1336 3.13194 9.99998 3.13194Z" fill="#8F0E42"/>
<path d="M19.9751 4.18111C19.934 4.05988 19.8484 3.96019 19.7368 3.9059L15.9238 2.05763C15.1127 1.76913 14.2863 1.54124 13.452 1.37468C13.4226 1.36864 13.3933 1.36572 13.3645 1.36572C13.158 1.36572 12.973 1.51545 12.927 1.73502C12.6223 3.14342 11.4349 4.19788 9.99994 4.19788C8.56501 4.19788 7.37756 3.1435 7.07295 1.73502C7.02639 1.51545 6.84177 1.36572 6.63536 1.36572C6.60653 1.36572 6.57729 1.36864 6.54792 1.37468C5.71361 1.54124 4.88729 1.76913 4.07491 2.05763L0.263192 3.90582C0.150985 3.96011 0.0647657 4.05981 0.0255813 4.18104C-0.0149567 4.30369 -0.00764765 4.43607 0.0494709 4.55176L1.70483 7.98195C1.78231 8.14475 1.93993 8.24246 2.10669 8.24246C2.14973 8.24246 2.19338 8.23592 2.23642 8.22235L4.07497 7.65017V19.1597C4.07497 19.4211 4.27807 19.6343 4.52766 19.6343H15.4724C15.7213 19.6343 15.9238 19.421 15.9238 19.1597V7.65032L17.7637 8.22249C17.8067 8.23606 17.8503 8.2426 17.8933 8.2426C18.0597 8.2426 18.2167 8.14489 18.2953 7.9821L19.9512 4.5519C20.007 4.43614 20.015 4.30376 19.9751 4.18111Z" fill="url(#paint0_linear)"/>
<path d="M19.7368 3.9059C19.8483 3.96018 19.934 4.05988 19.9751 4.18111C20.015 4.30376 20.007 4.43614 19.9512 4.5519L18.2952 7.9821C18.2167 8.14489 18.0597 8.2426 17.8933 8.2426C17.8503 8.2426 17.8067 8.23606 17.7637 8.22249L15.9238 7.65032V19.1597C15.9238 19.421 15.7213 19.6343 15.4724 19.6343H4.52765L9.99993 4.19788C11.4349 4.19788 12.6223 3.14342 12.927 1.73502C12.973 1.51545 13.158 1.36572 13.3645 1.36572C13.3933 1.36572 13.4226 1.36864 13.4519 1.37468C14.2863 1.54124 15.1126 1.76913 15.9237 2.05763L19.7368 3.9059Z" fill="url(#paint1_linear)"/>
<circle cx="15.5" cy="16.5" r="4.5" fill="url(#paint2_linear)"/>
<path d="M17.2654 15L14.3989 17.7898L15.0963 18.5064L17.9628 15.7166L17.2654 15Z" fill="#FFF9FB"/>
<path d="M13 16.3604L15.0963 18.5064L15.8111 17.8082L13.7148 15.6621L13 16.3604Z" fill="#FFF9FB"/>
</g>
<defs>
<linearGradient id="paint0_linear" x1="9.99999" y1="1.36572" x2="13.5" y2="20" gradientUnits="userSpaceOnUse">
<stop stop-color="#CC3471"/>
<stop offset="1" stop-color="#B31957"/>
</linearGradient>
<linearGradient id="paint1_linear" x1="12.2638" y1="1.36572" x2="12.2638" y2="19.6343" gradientUnits="userSpaceOnUse">
<stop stop-color="#BB1659"/>
<stop offset="1" stop-color="#8F0E42"/>
</linearGradient>
<linearGradient id="paint2_linear" x1="12.125" y1="13.125" x2="20" y2="21" gradientUnits="userSpaceOnUse">
<stop stop-color="#FBA7C9"/>
<stop offset="1" stop-color="#E66499"/>
</linearGradient>
<clipPath id="clip0">
<rect width="20" height="21" fill="white"/>
</clipPath>
</defs>
</svg>
