<svg width="21" height="20" viewBox="0 0 21 20" fill="none" xmlns="http://www.w3.org/2000/svg">
<path d="M13.7895 1.25H12.3605C12.0895 0.5225 11.3579 0 10.5 0C9.64212 0 8.91054 0.5225 8.63817 1.25H7.21054C6.84738 1.25 6.55264 1.53 6.55264 1.875V4.375C6.55264 4.72 6.84738 5 7.21054 5H13.7895C14.1526 5 14.4474 4.72 14.4474 4.375V1.875C14.4474 1.53 14.1526 1.25 13.7895 1.25Z" fill="#D54C00"/>
<path d="M19.1842 2.5H15.7632V4.375C15.7632 5.40875 14.8776 6.25 13.7895 6.25H7.21053C6.12237 6.25 5.23684 5.40875 5.23684 4.375V2.5H1.81579C1.09079 2.5 0.5 3.06125 0.5 3.75V18.75C0.5 19.4512 1.07763 20 1.81579 20H19.1842C19.9224 20 20.5 19.4512 20.5 18.75V3.75C20.5 3.04875 19.9224 2.5 19.1842 2.5Z" fill="url(#paint0_linear)"/>
<path d="M15.7632 2.5H19.1842C19.9224 2.5 20.5 3.04875 20.5 3.75V18.75C20.5 19.4513 19.9224 20 19.1842 20H7.8158L13.2105 6.25H13.7895C14.8776 6.25 15.7632 5.40875 15.7632 4.375V2.5Z" fill="url(#paint1_linear)"/>
<rect x="9.44736" y="9" width="8.42105" height="1" fill="#FDB600"/>
<rect x="9.44736" y="14" width="8.42105" height="1" fill="#FDB600"/>
<rect x="9.44736" y="15" width="4.21053" height="1" fill="#FDB600"/>
<rect x="9.44736" y="10" width="4.21053" height="1" fill="#FDB600"/>
<path d="M7.62147 8L4.60407 10.7898L5.33823 11.5064L8.35563 8.71663L7.62147 8Z" fill="#FFF6E0"/>
<path d="M3.13159 9.36039L5.33823 11.5064L6.09065 10.8082L3.88405 8.66215L3.13159 9.36039Z" fill="#FFF6E0"/>
<path d="M7.62147 13L4.60407 15.7898L5.33823 16.5064L8.35563 13.7166L7.62147 13Z" fill="#FFF6E0"/>
<path d="M3.13159 14.3604L5.33823 16.5064L6.09065 15.8082L3.88405 13.6621L3.13159 14.3604Z" fill="#FFF6E0"/>
<defs>
<linearGradient id="paint0_linear" x1="4.71053" y1="3" x2="15.8966" y2="23.9899" gradientUnits="userSpaceOnUse">
<stop stop-color="#FDB600"/>
<stop offset="1" stop-color="#D54C00"/>
</linearGradient>
<linearGradient id="paint1_linear" x1="11.1579" y1="2.5" x2="11.1579" y2="20" gradientUnits="userSpaceOnUse">
<stop stop-color="#ED8E00"/>
<stop offset="1" stop-color="#D54C00"/>
</linearGradient>
</defs>
</svg>
