<svg width="14" height="18" viewBox="0 0 14 18" fill="none" xmlns="http://www.w3.org/2000/svg">
<path d="M13.3281 2.17969H10.9023V1.40625C10.9023 1.21208 10.7449 1.05469 10.5508 1.05469H8.36174C8.20526 0.44884 7.65405 0 7 0C6.34595 0 5.79474 0.44884 5.63826 1.05469H3.44922C3.25505 1.05469 3.09766 1.21208 3.09766 1.40625V2.17969H0.671875C0.477707 2.17969 0.320312 2.33708 0.320312 2.53125V17.6484C0.320312 17.8426 0.477707 18 0.671875 18H13.3281C13.5223 18 13.6797 17.8426 13.6797 17.6484V2.53125C13.6797 2.33708 13.5223 2.17969 13.3281 2.17969ZM3.80078 1.75781H5.94531C6.13948 1.75781 6.29688 1.60042 6.29688 1.40625C6.29688 1.01855 6.6123 0.703125 7 0.703125C7.3877 0.703125 7.70312 1.01855 7.70312 1.40625C7.70312 1.60042 7.86052 1.75781 8.05469 1.75781H10.1992V3.16406H3.80078V1.75781ZM1.02344 17.2969V15.8957L2.42466 17.2969H1.02344ZM2.92188 16.7997L1.52065 15.3984H2.92188V16.7997ZM12.9766 17.2969H3.625V15.0469C3.625 14.8527 3.46761 14.6953 3.27344 14.6953H1.02344V2.88281H3.09766V3.51562C3.09766 3.70979 3.25505 3.86719 3.44922 3.86719H10.5508C10.7449 3.86719 10.9023 3.70979 10.9023 3.51562V2.88281H12.9766V17.2969Z" fill="#333333"/>
<path d="M5.52344 6.11719C5.52344 6.31136 5.68083 6.46875 5.875 6.46875H11.5C11.6942 6.46875 11.8516 6.31136 11.8516 6.11719C11.8516 5.92302 11.6942 5.76562 11.5 5.76562H5.875C5.68083 5.76562 5.52344 5.92302 5.52344 6.11719Z" fill="#333333"/>
<path d="M11.5 9.98438H5.875C5.68083 9.98438 5.52344 10.1418 5.52344 10.3359C5.52344 10.5301 5.68083 10.6875 5.875 10.6875H11.5C11.6942 10.6875 11.8516 10.5301 11.8516 10.3359C11.8516 10.1418 11.6942 9.98438 11.5 9.98438Z" fill="#333333"/>
<path d="M11.5 12.0938H5.875C5.68083 12.0938 5.52344 12.2511 5.52344 12.4453C5.52344 12.6395 5.68083 12.7969 5.875 12.7969H11.5C11.6942 12.7969 11.8516 12.6395 11.8516 12.4453C11.8516 12.2511 11.6942 12.0938 11.5 12.0938Z" fill="#333333"/>
<path d="M3.99532 4.61696L3.04097 5.61168L2.61013 5.14016C2.47913 4.99683 2.25681 4.98684 2.11344 5.11777C1.97011 5.24876 1.96009 5.47112 2.09104 5.61445C2.09104 5.61445 2.77416 6.36202 2.77515 6.36314C2.9099 6.51059 3.15051 6.51305 3.28836 6.3694L4.50269 5.10377C4.63713 4.96368 4.63252 4.74114 4.49243 4.6067C4.35233 4.47226 4.12975 4.47687 3.99532 4.61696Z" fill="#333333"/>
<path d="M3.99532 6.72634L3.04097 7.72106L2.61013 7.24954C2.47913 7.1062 2.25681 7.09622 2.11344 7.22714C1.97011 7.35814 1.96009 7.5805 2.09104 7.72383C2.09104 7.72383 2.77431 8.47157 2.77515 8.47252C2.91004 8.62014 3.1502 8.62275 3.28836 8.47878L4.50269 7.21315C4.63713 7.07305 4.63252 6.85051 4.49243 6.71607C4.35229 6.58164 4.12975 6.58624 3.99532 6.72634Z" fill="#333333"/>
<path d="M3.99532 8.83571L3.04097 9.83043L2.61013 9.35892C2.47913 9.21558 2.25681 9.2056 2.11344 9.33652C1.97011 9.46751 1.96009 9.68988 2.09104 9.83321C2.09104 9.83321 2.77371 10.5803 2.77515 10.5819C2.9092 10.7286 3.15153 10.7308 3.28836 10.5882L4.50269 9.32253C4.63713 9.18243 4.63252 8.95989 4.49243 8.82545C4.35233 8.69101 4.12975 8.69562 3.99532 8.83571Z" fill="#333333"/>
<path d="M11.5 7.875C11.3063 7.875 11.1484 8.03285 11.1484 8.22656C11.1484 8.42027 11.3063 8.57812 11.5 8.57812C11.6937 8.57812 11.8516 8.42027 11.8516 8.22656C11.8516 8.03285 11.6937 7.875 11.5 7.875Z" fill="#333333"/>
<path d="M5.875 8.57812H10.0938C10.2875 8.57812 10.4453 8.42027 10.4453 8.22656C10.4453 8.03285 10.2875 7.875 10.0938 7.875H5.875C5.68129 7.875 5.52344 8.03285 5.52344 8.22656C5.52344 8.42027 5.68129 8.57812 5.875 8.57812Z" fill="#333333"/>
<path d="M11.5 14.2031C11.3063 14.2031 11.1484 14.361 11.1484 14.5547C11.1484 14.7484 11.3063 14.9062 11.5 14.9062C11.6937 14.9062 11.8516 14.7484 11.8516 14.5547C11.8516 14.361 11.6937 14.2031 11.5 14.2031Z" fill="#333333"/>
<path d="M10.0938 14.2031H5.875C5.68129 14.2031 5.52344 14.361 5.52344 14.5547C5.52344 14.7484 5.68129 14.9062 5.875 14.9062H10.0938C10.2875 14.9062 10.4453 14.7484 10.4453 14.5547C10.4453 14.361 10.2875 14.2031 10.0938 14.2031Z" fill="#333333"/>
</svg>
