<svg width="20" height="20" viewBox="0 0 20 20" fill="none" xmlns="http://www.w3.org/2000/svg">
<path d="M5.50781 9.99131C5.50781 9.3826 5.62977 8.80185 5.85012 8.27193L1.0573 5.50482C0.36582 6.87986 0 8.40744 0 9.99131C0 12.6624 1.0402 15.1736 2.92891 17.0624C3.41398 17.5475 3.94043 17.9762 4.4998 18.3461L7.26672 13.5536C6.19797 12.7317 5.50781 11.4407 5.50781 9.99131Z" fill="url(#paint0_linear)"/>
<path d="M2.92894 2.92021C2.44386 3.40529 2.01519 3.93174 1.64526 4.49111L6.43769 7.25799C7.14702 6.33568 8.20569 5.69541 9.41409 5.53728V0.00872803C6.96335 0.149431 4.67894 1.17029 2.92894 2.92021Z" fill="#FBA7C9"/>
<path d="M17.0711 2.92021C15.3211 1.17029 13.0367 0.149431 10.5859 0.00872803V5.53728C12.7871 5.82529 14.4922 7.71283 14.4922 9.99127C14.4922 12.4683 12.477 14.4835 10 14.4835C9.39125 14.4835 8.81055 14.3615 8.28063 14.1412L5.51352 18.934C6.88852 19.6255 8.41614 19.9913 10 19.9913C12.6711 19.9913 15.1823 18.9511 17.0711 17.0624C18.9598 15.1736 20 12.6624 20 9.99127C20 7.32017 18.9598 4.80896 17.0711 2.92021Z" fill="url(#paint1_linear)"/>
<defs>
<linearGradient id="paint0_linear" x1="3.63336" y1="5.50482" x2="3.63336" y2="18.3461" gradientUnits="userSpaceOnUse">
<stop stop-color="#E66499"/>
<stop offset="1" stop-color="#CC3471"/>
</linearGradient>
<linearGradient id="paint1_linear" x1="12.7568" y1="0.00872803" x2="12.7568" y2="19.9913" gradientUnits="userSpaceOnUse">
<stop stop-color="#CC3471"/>
<stop offset="1" stop-color="#8F0E42"/>
</linearGradient>
</defs>
</svg>
