<svg width="18" height="18" viewBox="0 0 18 18" fill="none" xmlns="http://www.w3.org/2000/svg">
<path d="M5.86722 12.1318C5.72965 11.9948 5.50701 11.9952 5.37004 12.1328C5.233 12.2704 5.2335 12.4931 5.3711 12.63L5.39694 12.6557C5.46538 12.723 5.55443 12.7565 5.64338 12.7565C5.73436 12.7565 5.82531 12.7214 5.89415 12.6515C6.03027 12.513 6.02837 12.2904 5.88993 12.1543L5.86722 12.1318Z" fill="#333333"/>
<path d="M15.364 2.63602C13.6641 0.936176 11.404 0 9 0C9 0 8.99961 0 8.99954 0C6.59563 0.000140625 4.33564 0.936352 2.63591 2.63619C0.936105 4.33607 0 6.59609 0 9C0 11.404 0.936176 13.6641 2.63602 15.364C4.33593 17.0638 6.59602 18 9 18C11.404 18 13.6641 17.0638 15.364 15.364C17.0638 13.6641 18 11.404 18 9C18 6.59602 17.0638 4.33593 15.364 2.63602ZM9.35111 0.710473C13.6472 0.890086 17.1095 4.35245 17.2895 8.64847H14.1209C13.9475 6.09775 11.9023 4.0525 9.35111 3.87911V0.710473ZM9 17.2969C4.42508 17.2969 0.703125 13.5749 0.703125 9C0.703125 4.54317 4.2358 0.895676 8.64798 0.710508V3.87914C5.98134 4.06062 3.86719 6.28815 3.86719 9C3.86719 9.86003 4.08414 10.711 4.49455 11.4608C4.58779 11.6312 4.80143 11.6936 4.97173 11.6005C5.14206 11.5072 5.20457 11.2936 5.11137 11.1233C4.75738 10.4766 4.57031 9.74239 4.57031 9C4.57031 6.55766 6.55731 4.57056 9 4.57031C11.4426 4.57031 13.4297 6.55745 13.4297 9C13.4297 11.4426 11.4426 13.4297 9 13.4297C8.29252 13.4297 7.6166 13.268 6.99107 12.9491C6.81806 12.861 6.60639 12.9296 6.51818 13.1026C6.43001 13.2756 6.49874 13.4873 6.67171 13.5755C7.39709 13.9453 8.18044 14.1328 9 14.1328C11.7121 14.1328 13.9396 12.0185 14.1209 9.3516H17.2895C17.1046 13.764 13.4571 17.2969 9 17.2969Z" fill="#333333"/>
</svg>
