<svg width="90" height="90" viewBox="0 0 90 90" fill="none" xmlns="http://www.w3.org/2000/svg">
<rect width="90" height="90" rx="2" fill="transparent"/>
<path d="M60 43.6484V46.3516C60 48.4997 59.3961 50.5062 58.3483 52.2112H53.4066V43.6484L46.1538 32.4396H48.7912C54.9817 32.4396 60 37.4578 60 43.6484Z" fill="#D8D8D8"/>
<path d="M57.3626 43.6483V46.3516C57.3626 47.8984 57.0494 49.3721 56.4824 50.7131L52.9296 51.5557L51.956 47.0769V43.6483C51.956 41.9031 50.5365 40.4835 48.7912 40.4835H38.044V42.9231L31.6516 37.7888L30 36.4615L38.044 30V32.4395H46.1539C52.3443 32.4395 57.3626 37.4578 57.3626 43.6483Z" fill="#D8D8D8"/>
<path d="M51.956 47.0768L57.3626 53.5383L51.956 59.9998V57.5603H41.2087C35.0183 57.5603 30 52.542 30 46.3515V43.6482C30 41.5001 30.604 39.4937 31.6516 37.7887L38.0439 42.923V46.3515C38.0439 48.0968 39.4635 49.5163 41.2087 49.5163H51.956V47.0768Z" fill="#646A70"/>
<path d="M60 53.5383L51.9561 59.9999L54.9231 53.5383L51.9561 47.0768L60 53.5383Z" fill="#646A70"/>
</svg>
