<svg width="90" height="90" viewBox="0 0 90 90" fill="none" xmlns="http://www.w3.org/2000/svg">
<rect width="90" height="90" fill="transparent"/>
<path d="M38.7266 35.0312C37.2726 35.0312 36.0898 36.214 36.0898 37.668C36.0898 39.1219 37.2726 40.3047 38.7266 40.3047C40.1805 40.3047 41.3633 39.1219 41.3633 37.668C41.3633 36.214 40.1805 35.0312 38.7266 35.0312Z" fill="#B3B3B3"/>
<path d="M38.7266 28C33.3956 28 29 32.3371 29 37.668C29 42.9989 33.3956 47.3359 38.7266 47.3359H47.5156C48.0014 47.3359 48.3945 46.9428 48.3945 46.457V37.668C48.3945 32.3371 44.0575 28 38.7266 28ZM38.7266 42.0625C36.3035 42.0625 34.332 40.091 34.332 37.668C34.332 35.2449 36.3035 33.2734 38.7266 33.2734C41.1496 33.2734 43.1211 35.2449 43.1211 37.668C43.1211 40.091 41.1496 42.0625 38.7266 42.0625ZM44 43.8203C43.5146 43.8203 43.1211 43.4268 43.1211 42.9414C43.1211 42.4559 43.5146 42.0625 44 42.0625C44.4854 42.0625 44.8789 42.4559 44.8789 42.9414C44.8789 43.4268 44.4854 43.8203 44 43.8203Z" fill="#646A70"/>
<path d="M47.5156 29.7578H46.9521C48.6274 31.4993 49.7545 33.7662 50.0603 36.2865C50.1155 36.1714 50.1523 36.0464 50.1523 35.9102V32.3945C50.1523 30.9406 48.9696 29.7578 47.5156 29.7578Z" fill="#B3B3B3"/>
<path d="M58.1211 50.9688H52.7891V53.6055C52.7891 54.0913 52.396 54.4844 51.9102 54.4844C51.4244 54.4844 51.0312 54.0913 51.0312 53.6055V50.9688H47.5156V53.6055C47.5156 54.0913 47.1225 54.4844 46.6367 54.4844C46.1509 54.4844 45.7578 54.0913 45.7578 53.6055V50.9688H42.2422V53.6055C42.2422 54.0913 41.8491 54.4844 41.3633 54.4844C40.8775 54.4844 40.4844 54.0913 40.4844 53.6055V50.9688H36.9688V53.6055C36.9688 54.0913 36.5756 54.4844 36.0898 54.4844C35.604 54.4844 35.2109 54.0913 35.2109 53.6055V50.9688H29.8789C29.3931 50.9688 29 51.3619 29 51.8477V57.1211C29 57.6069 29.3931 58 29.8789 58H58.1211C58.6069 58 59 57.6069 59 57.1211V51.8477C59 51.3619 58.6069 50.9688 58.1211 50.9688Z" fill="#D0D0D0"/>
<path d="M53.668 40.3047H50.1523V45.5781H53.668V40.3047Z" fill="#646A70"/>
<path d="M58.1211 40.3047H55.4258V45.5781H57.2422V46.457C57.2422 46.9428 57.6353 47.3359 58.1211 47.3359C58.6069 47.3359 59 46.9428 59 46.457V41.1836C59 40.6978 58.6069 40.3047 58.1211 40.3047Z" fill="#646A70"/>
</svg>
