<svg width="90" height="90" viewBox="0 0 90 90" fill="none" xmlns="http://www.w3.org/2000/svg">
<rect width="90" height="90" rx="2" fill="transparent"/>
<path d="M59.5059 37.4375V57.2422C59.5059 58.2113 58.7172 59 57.748 59H33.2559C32.2867 59 31.498 58.2113 31.498 57.2422V30.7578C31.498 29.7887 32.2867 29 33.2559 29H38.998C41.2656 30.0148 43.5209 30.3893 45.502 30.4443C49.2449 30.5492 52.0059 29.5162 52.0059 29.5162L59.251 36.8182C59.4145 36.9828 59.5059 37.2055 59.5059 37.4375Z" fill="#646A70"/>
<path d="M52.0059 29.5162V38.375C52.0059 38.8602 51.6121 39.2539 51.127 39.2539H39.877C39.3918 39.2539 38.998 38.8602 38.998 38.375V29H51.127C51.3613 29 51.5857 29.0938 51.751 29.2596L52.0059 29.5162Z" fill="#B1B1B1"/>
<path d="M48.2559 29V34.625C48.2559 35.1102 47.8621 35.5039 47.377 35.5039C46.8918 35.5039 46.498 35.1102 46.498 34.625V29H48.2559Z" fill="#646A70"/>
<path d="M55.7559 44V54.3125C55.7559 54.7977 55.3621 55.1914 54.877 55.1914H36.127C35.6418 55.1914 35.248 54.7977 35.248 54.3125V44C35.248 43.5148 35.6418 43.1211 36.127 43.1211H54.877C55.3621 43.1211 55.7559 43.5148 55.7559 44Z" fill="#D8D8D8"/>
<path d="M42.6895 48.6289H39.877C39.3916 48.6289 38.998 48.2354 38.998 47.75C38.998 47.2646 39.3916 46.8711 39.877 46.8711H42.6895C43.1748 46.8711 43.5684 47.2646 43.5684 47.75C43.5684 48.2354 43.1748 48.6289 42.6895 48.6289Z" fill="#646A70"/>
</svg>
