<svg width="21" height="21" viewBox="0 0 21 21" fill="none" xmlns="http://www.w3.org/2000/svg">
<path d="M18.1139 8.09221L17.5838 6.8056C17.5838 6.8056 18.8172 3.96314 18.7083 3.85386L17.0751 2.22548C16.9622 2.11321 14.1783 3.41075 14.1783 3.41075L12.8943 2.8812C12.8943 2.8812 11.7602 0 11.6045 0H9.30015C9.13965 0 8.09009 2.88716 8.09009 2.88716L6.80805 3.4187C6.80805 3.4187 3.96577 2.18475 3.85683 2.29503L2.22655 3.92539C2.11372 4.03766 3.41132 6.82249 3.41132 6.82249L2.88119 8.10711C2.88119 8.10711 0 9.24072 0 9.39372V11.7007C0 11.8616 2.888 12.9118 2.888 12.9118L3.41813 14.1944C3.41813 14.1944 2.18472 17.0349 2.2927 17.1442L3.92492 18.7765C4.03581 18.8868 6.8207 17.5893 6.8207 17.5893L8.10566 18.1208C8.10566 18.1208 9.23984 21 9.39645 21H11.7008C11.8603 21 12.9109 18.1128 12.9109 18.1128L14.1968 17.5813C14.1968 17.5813 17.0333 18.8153 17.1432 18.707L18.7754 17.0766C18.8892 16.9623 17.5887 14.1795 17.5887 14.1795L18.1178 12.8949C18.1178 12.8949 21 11.7593 21 11.6043V9.29933C21.001 9.13938 18.1139 8.09221 18.1139 8.09221ZM13.8671 10.4995C13.8671 12.3544 12.3564 13.8645 10.5005 13.8645C8.64649 13.8645 7.13391 12.3544 7.13391 10.4995C7.13391 8.6446 8.64649 7.13644 10.5005 7.13644C12.3574 7.13744 13.8671 8.6446 13.8671 10.4995Z" fill="url(#paint0_linear)"/>
<circle cx="10.5" cy="10.5" r="3.5" stroke="url(#paint1_linear)" stroke-width="2"/>
<defs>
<linearGradient id="paint0_linear" x1="4" y1="9.15357e-08" x2="16.5" y2="21" gradientUnits="userSpaceOnUse">
<stop stop-color="#2489DB"/>
<stop offset="1" stop-color="#005095"/>
</linearGradient>
<linearGradient id="paint1_linear" x1="8" y1="6" x2="13" y2="16" gradientUnits="userSpaceOnUse">
<stop stop-color="#A5D2F7"/>
<stop offset="1" stop-color="#1E80D0"/>
</linearGradient>
</defs>
</svg>
