<svg width="18" height="18" viewBox="0 0 18 18" fill="none" xmlns="http://www.w3.org/2000/svg">
<path fill-rule="evenodd" clip-rule="evenodd" d="M17.781 3.61907L9.13261 0.0971123C9.0476 0.0625186 8.95243 0.0625186 8.86743 0.0971123L5.84585 1.32762C5.66603 1.40085 5.57961 1.60598 5.65284 1.78581C5.72604 1.96563 5.93125 2.05205 6.11103 1.97882L9 0.802311L17.2969 4.18107V4.88448H16.0028H1.99723H0.703125V4.18107L3.50571 3.0398C3.68554 2.96657 3.77195 2.76143 3.69872 2.5816C3.62552 2.40182 3.42032 2.3154 3.24053 2.3886L0.218988 3.61907C0.0865547 3.673 0 3.8017 0 3.94468V5.23604C0 5.43017 0.157395 5.5876 0.351562 5.5876H1.64566V13.043C1.64566 13.2371 1.80306 13.3945 1.99723 13.3945H4.55298H13.447H16.0028C16.1969 13.3945 16.3543 13.2371 16.3543 13.043V5.5876H17.6484C17.8426 5.5876 18 5.43017 18 5.23604V3.94468C18 3.8017 17.9134 3.673 17.781 3.61907ZM4.90454 9.47483H13.0954V10.7316H4.90454V9.47483ZM13.0954 8.77171H4.90454V7.51498H13.0954V8.77171ZM4.90454 12.6914V11.4347H13.0954V12.6914H4.90454ZM15.6512 12.6914H13.7985V11.0831V9.12327V7.16341C13.7985 6.96928 13.6412 6.81185 13.447 6.81185H4.55298C4.35881 6.81185 4.20142 6.96928 4.20142 7.16341V9.12327V11.0831V12.6914H2.34879V5.5876H15.6512V12.6914Z" fill="black"/>
<path fill-rule="evenodd" clip-rule="evenodd" d="M5.77673 14.2706H1.99722C1.80305 14.2706 1.64566 14.428 1.64566 14.6222V17.5773C1.64566 17.7714 1.80305 17.9289 1.99722 17.9289H5.77677C5.97093 17.9289 6.12833 17.7714 6.12833 17.5773V14.6222C6.12829 14.428 5.9709 14.2706 5.77673 14.2706ZM5.42517 17.2257H2.34879V14.9737H3.53541V15.7472C3.53541 15.9413 3.69281 16.0988 3.88698 16.0988C4.08114 16.0988 4.23854 15.9413 4.23854 15.7472V14.9737H5.4252V17.2257H5.42517Z" fill="black"/>
<path fill-rule="evenodd" clip-rule="evenodd" d="M10.8898 14.2706H7.1102C6.91603 14.2706 6.75864 14.428 6.75864 14.6222V17.5773C6.75864 17.7714 6.91603 17.9289 7.1102 17.9289H10.8898C11.0839 17.9289 11.2413 17.7714 11.2413 17.5773V14.6222C11.2413 14.428 11.0839 14.2706 10.8898 14.2706ZM10.5382 17.2257H7.46176V14.9737H8.64843V15.7472C8.64843 15.9413 8.80582 16.0988 8.99999 16.0988C9.19416 16.0988 9.35155 15.9413 9.35155 15.7472V14.9737H10.5382V17.2257Z" fill="black"/>
<path fill-rule="evenodd" clip-rule="evenodd" d="M16.0028 14.2706H12.2233C12.0291 14.2706 11.8717 14.428 11.8717 14.6222V17.5773C11.8717 17.7714 12.0291 17.9289 12.2233 17.9289H16.0028C16.1969 17.9289 16.3543 17.7714 16.3543 17.5773V14.6222C16.3543 14.428 16.1969 14.2706 16.0028 14.2706ZM15.6512 17.2257H12.5748V14.9737H13.7614V15.7472C13.7614 15.9413 13.9188 16.0988 14.113 16.0988C14.3072 16.0988 14.4645 15.9413 14.4645 15.7472V14.9737H15.6512V17.2257Z" fill="black"/>
<path fill-rule="evenodd" clip-rule="evenodd" d="M4.67578 2.53527C4.86942 2.53527 5.02734 2.37735 5.02734 2.18371C5.02734 1.99007 4.86942 1.83215 4.67578 1.83215C4.48214 1.83215 4.32422 1.99007 4.32422 2.18371C4.32422 2.37735 4.48214 2.53527 4.67578 2.53527Z" fill="black"/>
</svg>
