<svg width="21" height="21" viewBox="0 0 21 21" fill="none" xmlns="http://www.w3.org/2000/svg">
<g clip-path="url(#clip0)">
<path d="M11.2601 5.64247L10.7533 5.94745L10.7533 11.4253L15.3163 8.68983V3.20752L11.2601 5.64247Z" fill="url(#paint0_linear)"/>
<path d="M12.236 1.05645L10.4812 0L5.79153 2.81557L7.54868 3.87202L12.236 1.05645Z" fill="#EDDB3B"/>
<path d="M15.1685 2.81557L13.1462 1.61761L8.45895 4.43318L8.7264 4.57713L10.4812 5.63114L12.2266 4.58445L15.1685 2.81557Z" fill="#EDDB3B"/>
<path d="M8.24353 6.11838L7.40366 5.66945V4.27387L5.67232 3.23694L5.65381 8.81999L10.2024 11.4319V5.95735L8.24353 4.78379V6.11838Z" fill="url(#paint1_linear)"/>
</g>
<g clip-path="url(#clip1)">
<path d="M6.41393 14.8825L5.9072 15.1874L5.9072 20.6653L10.5 18.06V12.6L6.41393 14.8825Z" fill="url(#paint2_linear)"/>
<path d="M7.38985 10.2964L5.63505 9.23999L0.945404 12.0556L2.70255 13.112L7.38985 10.2964Z" fill="#EDDB3B"/>
<path d="M10.3224 12.0556L8.30012 10.8576L3.61282 13.6732L3.88027 13.8171L5.63507 14.8711L7.38049 13.8244L10.3224 12.0556Z" fill="#EDDB3B"/>
<path d="M3.3974 15.3584L2.55753 14.9094V13.5139L0.826189 12.4769L0.807678 18.06L5.3563 20.6719V15.1973L3.3974 14.0238V15.3584Z" fill="url(#paint3_linear)"/>
</g>
<g clip-path="url(#clip2)">
<path d="M16.1063 14.8825L15.5995 15.1874L15.5995 20.6653L20.1625 17.9298V12.4475L16.1063 14.8825Z" fill="url(#paint4_linear)"/>
<path d="M17.0822 10.2964L15.3274 9.23999L10.6377 12.0556L12.3949 13.112L17.0822 10.2964Z" fill="#EDDB3B"/>
<path d="M20.0147 12.0556L17.9924 10.8576L13.3051 13.6732L13.5726 13.8171L15.3274 14.8711L17.0728 13.8244L20.0147 12.0556Z" fill="#EDDB3B"/>
<path d="M13.0897 15.3584L12.2499 14.9094V13.6106L10.5 12.6V18.06L15.0486 20.6719V15.1973L13.0897 14.0238V15.3584Z" fill="url(#paint5_linear)"/>
</g>
<defs>
<linearGradient id="paint0_linear" x1="10.601" y1="3.67503" x2="15.4111" y2="11.3835" gradientUnits="userSpaceOnUse">
<stop stop-color="#ED8E00"/>
<stop offset="1" stop-color="#D54C00"/>
</linearGradient>
<linearGradient id="paint1_linear" x1="7.92812" y1="3.23694" x2="7.92812" y2="11.4319" gradientUnits="userSpaceOnUse">
<stop stop-color="#FDB600"/>
<stop offset="1" stop-color="#ED8E00"/>
</linearGradient>
<linearGradient id="paint2_linear" x1="6.05771" y1="12.6" x2="10.8678" y2="20.3085" gradientUnits="userSpaceOnUse">
<stop stop-color="#ED8E00"/>
<stop offset="1" stop-color="#D54C00"/>
</linearGradient>
<linearGradient id="paint3_linear" x1="3.08199" y1="12.4769" x2="3.08199" y2="20.6719" gradientUnits="userSpaceOnUse">
<stop stop-color="#FDB600"/>
<stop offset="1" stop-color="#ED8E00"/>
</linearGradient>
<linearGradient id="paint4_linear" x1="16.6587" y1="13.65" x2="20.9309" y2="20.3254" gradientUnits="userSpaceOnUse">
<stop stop-color="#ED8E00"/>
<stop offset="1" stop-color="#D54C00"/>
</linearGradient>
<linearGradient id="paint5_linear" x1="12.7743" y1="12.6" x2="12.7743" y2="20.6719" gradientUnits="userSpaceOnUse">
<stop stop-color="#FDB600"/>
<stop offset="1" stop-color="#ED8E00"/>
</linearGradient>
<clipPath id="clip0">
<rect x="4.84613" width="11.3077" height="11.76" fill="white"/>
</clipPath>
<clipPath id="clip1">
<rect y="9.23999" width="11.3077" height="11.76" fill="white"/>
</clipPath>
<clipPath id="clip2">
<rect x="9.69232" y="9.23999" width="11.3077" height="11.76" fill="white"/>
</clipPath>
</defs>
</svg>
