
<svg width="20" height="20" viewBox="0 0 20 20" fill="none" xmlns="http://www.w3.org/2000/svg">
<path d="M16.9556 6.25915L18.0377 5.02457C18.2344 4.8007 18.1685 4.4907 17.8914 4.33172L16.259 3.39833C15.9814 3.24002 15.5974 3.29293 15.401 3.5168L14.2917 4.78143C13.473 4.47214 12.5938 4.25011 11.6724 4.13232V3.61768C11.6724 3.28849 12.0062 3.01892 12.414 3.01892H12.8235C13.2312 3.01892 13.5649 2.74926 13.5649 2.4202V0.599092C13.5649 0.269573 13.2312 0 12.8235 0H7.402C6.99414 0 6.66083 0.269573 6.66083 0.599092V2.4202C6.66083 2.74926 6.99414 3.01892 7.402 3.01892H7.81157C8.21943 3.01892 8.55321 3.28849 8.55321 3.61768V4.13232C7.56577 4.25912 6.62648 4.5041 5.75889 4.84946L4.65961 3.59669C4.4633 3.37278 4.07941 3.31983 3.80166 3.47851L2.1698 4.41161C1.89241 4.57025 1.82679 4.88058 2.02309 5.10441L3.13145 6.36853C1.33712 7.81425 0.225647 9.81244 0.225647 12.0164C0.225647 16.4188 4.66085 20.0001 10.1128 20.0001C15.5647 20.0001 20 16.4188 20 12.0164C19.9999 9.75631 18.8306 7.71271 16.9556 6.25915ZM10.1128 18.0841C5.96925 18.0841 2.59847 15.362 2.59847 12.0164C2.59847 8.6706 5.96925 5.94853 10.1128 5.94853C14.2562 5.94853 17.627 8.6706 17.627 12.0164C17.627 15.362 14.2562 18.0841 10.1128 18.0841Z" fill="#646A70"/>
<path d="M16.3075 11.9763C16.2807 9.23617 13.5126 7.01306 10.1128 7.01306C10.0962 7.01306 10.0802 7.01428 10.0634 7.01428V11.9763V17.0187C10.0802 17.0187 10.0962 17.0195 10.1128 17.0195C13.5295 17.0195 16.3089 14.7754 16.3089 12.0164C16.3088 12.0027 16.3075 11.9895 16.3075 11.9763Z" fill="#D0D0D0"/>
</svg>
