
<svg width="17" height="20" viewBox="0 0 17 20" fill="none" xmlns="http://www.w3.org/2000/svg">
<path d="M14.1918 6.25915L15.1098 5.02457C15.2766 4.8007 15.2207 4.4907 14.9856 4.33172L13.6009 3.39833C13.3654 3.24002 13.0397 3.29293 12.8731 3.5168L11.932 4.78143C11.2376 4.47214 10.4918 4.25011 9.71014 4.13232V3.61768C9.71014 3.28849 9.99328 3.01892 10.3392 3.01892H10.6867C11.0325 3.01892 11.3155 2.74926 11.3155 2.4202V0.599092C11.3155 0.269573 11.0325 0 10.6867 0H6.08761C5.74163 0 5.45889 0.269573 5.45889 0.599092V2.4202C5.45889 2.74926 5.74163 3.01892 6.08761 3.01892H6.43505C6.78103 3.01892 7.06417 3.28849 7.06417 3.61768V4.13232C6.22655 4.25912 5.42976 4.5041 4.69378 4.84946L3.76128 3.59669C3.59475 3.37278 3.2691 3.31983 3.03349 3.47851L1.6492 4.41161C1.4139 4.57025 1.35823 4.88058 1.52475 5.10441L2.46496 6.36853C0.942849 7.81425 0 9.81244 0 12.0164C0 16.4188 3.76233 20.0001 8.3872 20.0001C13.012 20.0001 16.7744 16.4188 16.7744 12.0164C16.7743 9.75631 15.7824 7.71271 14.1918 6.25915ZM8.38716 18.0841C4.87223 18.0841 2.01283 15.362 2.01283 12.0164C2.01283 8.6706 4.87223 5.94853 8.38716 5.94853C11.9019 5.94853 14.7614 8.6706 14.7614 12.0164C14.7614 15.362 11.902 18.0841 8.38716 18.0841Z" fill="url(#paint0_linear)"/>
<path d="M13.6421 11.9763C13.6194 9.23617 11.2712 7.01306 8.3872 7.01306C8.37312 7.01306 8.35947 7.01428 8.34521 7.01428V11.9763V17.0187C8.35947 17.0187 8.37312 17.0195 8.3872 17.0195C11.2855 17.0195 13.6432 14.7754 13.6432 12.0164C13.6431 12.0027 13.6421 11.9895 13.6421 11.9763Z" fill="url(#paint1_linear)"/>
<defs>
<linearGradient id="paint0_linear" x1="2.5" y1="-1.5" x2="12.5" y2="22.5" gradientUnits="userSpaceOnUse">
<stop stop-color="#999999"/>
<stop offset="1" stop-color="#646A70"/>
</linearGradient>
<linearGradient id="paint1_linear" x1="8" y1="5.5" x2="11" y2="20" gradientUnits="userSpaceOnUse">
<stop stop-color="#585858"/>
<stop offset="1" stop-color="#777777"/>
</linearGradient>
</defs>
</svg>
