<svg width="20" height="20" viewBox="0 0 20 20" fill="none" xmlns="http://www.w3.org/2000/svg">
<path d="M0 0H10H20V16L10 20L0 16V0Z" fill="url(#paint0_linear)"/>
<rect width="20" height="5" fill="url(#paint1_linear)"/>
<path d="M20 16V0H10V20L20 16Z" fill="url(#paint2_linear)" fill-opacity="0.5"/>
<rect x="1" y="1" width="1" height="2" fill="#646A70"/>
<rect x="1" y="4" width="1" height="2" fill="#646A70"/>
<rect x="1" y="7" width="1" height="2" fill="#646A70"/>
<rect x="1" y="10" width="1" height="2" fill="#646A70"/>
<rect x="1" y="13" width="1" height="2" fill="#646A70"/>
<rect x="18" y="1" width="1" height="2" fill="#646A70"/>
<rect x="18" y="4" width="1" height="2" fill="#646A70"/>
<rect x="18" y="7" width="1" height="2" fill="#646A70"/>
<rect x="18" y="10" width="1" height="2" fill="#646A70"/>
<rect x="18" y="13" width="1" height="2" fill="#646A70"/>
<defs>
<linearGradient id="paint0_linear" x1="5.32717e-07" y1="-5.5" x2="16.5" y2="22.5" gradientUnits="userSpaceOnUse">
<stop stop-color="#D6D6D6"/>
<stop offset="0.597988" stop-color="#9F9F9F"/>
<stop offset="1" stop-color="#7A7A7A"/>
</linearGradient>
<linearGradient id="paint1_linear" x1="4" y1="-2" x2="3.66874" y2="7.95665" gradientUnits="userSpaceOnUse">
<stop stop-color="#D0D0D0"/>
<stop offset="1" stop-color="#7A7A7A"/>
</linearGradient>
<linearGradient id="paint2_linear" x1="15" y1="0" x2="15" y2="20" gradientUnits="userSpaceOnUse">
<stop stop-color="#646A70"/>
<stop offset="1" stop-color="#333333"/>
</linearGradient>
</defs>
</svg>
