<svg width="90" height="90" viewBox="0 0 90 90" fill="none" xmlns="http://www.w3.org/2000/svg">
<rect width="90" height="90" rx="2" fill="transparent"/>
<path d="M47.6149 34.8707L45.8011 34.1351C45.8011 34.1351 44.1632 30.0962 43.9461 30.0979L40.7023 30.1327C40.4784 30.1354 39.0377 34.2084 39.0377 34.2084L37.241 34.9754C37.241 34.9754 33.2313 33.2749 33.0779 33.4312L30.8073 35.7443C30.6491 35.9054 32.5131 39.8038 32.5131 39.8038L31.7833 41.6145C31.7833 41.6145 27.744 43.2516 27.7474 43.4697L27.7775 46.7126C27.7791 46.9365 31.8531 48.378 31.8531 48.378L32.6202 50.176C32.6202 50.176 30.9191 54.1851 31.0727 54.3359L33.3884 56.6091C33.5499 56.7676 37.4498 54.9035 37.4498 54.9035L39.2597 55.6352C39.2597 55.6352 40.8956 59.6721 41.1117 59.6714L44.3585 59.6415C44.5785 59.6388 46.0201 55.5648 46.0201 55.5648L47.8198 54.7987C47.8198 54.7987 51.8276 56.4973 51.9819 56.3401L54.2525 54.027C54.4097 53.8669 52.5467 49.9675 52.5467 49.9675L53.2803 48.1529C53.2803 48.1529 57.3138 46.5216 57.3134 46.3045L57.2852 43.0596C57.2826 42.8328 53.2078 41.3962 53.2078 41.3962L52.4397 39.5992C52.4397 39.5992 54.1397 35.5871 53.9842 35.4344L51.6704 33.1632C51.5108 33.0046 47.6149 34.8707 47.6149 34.8707ZM45.8467 41.5058C47.7086 43.3335 47.736 46.3379 45.9072 48.2009C44.0804 50.062 41.0741 50.0922 39.2121 48.2645C37.3502 46.4368 37.3267 43.4324 39.1536 41.5713C40.9843 39.7083 43.9847 39.6781 45.8467 41.5058Z" fill="#646A70"/>
<circle cx="42.5296" cy="44.8858" r="5.71334" transform="rotate(-45.5311 42.5296 44.8858)" stroke="#D8D8D8" stroke-width="2"/>
<path d="M62.6389 51.3751H61.5555V49.9584C61.5555 47.2244 59.2877 45.0001 56.5 45.0001C53.7123 45.0001 51.4445 47.2244 51.4445 49.9584V51.3751H50.3611C50.1615 51.3751 50 51.5335 50 51.7293V60.5835C50 61.3648 50.6478 62.0001 51.4445 62.0001H61.5556C62.3522 62.0001 63 61.3648 63 60.5834V51.7293C63 51.5335 62.8385 51.3751 62.6389 51.3751ZM59.3889 51.3751H53.6111V49.9584C53.6111 48.3962 54.9071 47.1251 56.5 47.1251C58.0929 47.1251 59.3889 48.3962 59.3889 49.9584V51.3751Z" fill="#D8D8D8"/>
<path d="M53 55.6251H60V57.3751H53V55.6251Z" fill="#646A70"/>
<path d="M57.375 53.0001L57.375 60.0001H55.625L55.625 53.0001L57.375 53.0001Z" fill="#646A70"/>
</svg>
