<svg width="90" height="90" viewBox="0 0 90 90" fill="none" xmlns="http://www.w3.org/2000/svg">
<rect width="90" height="90" rx="2" fill="transparent"/>
<path d="M53.5828 37.3118L52.1254 35.9301C52.1254 35.9301 52.0727 31.4587 51.8647 31.379L48.7529 30.198C48.538 30.1168 45.6371 33.4683 45.6371 33.4683L43.6336 33.5285C43.6336 33.5285 40.4397 30.403 40.2348 30.4949L37.1998 31.8545C36.9884 31.9492 37.3096 36.3711 37.3096 36.3711L35.9348 37.8276C35.9348 37.8276 31.4633 37.8795 31.3848 38.089L30.1997 41.1982C30.1173 41.4126 33.4695 44.3148 33.4695 44.3148L33.5293 46.3195C33.5293 46.3195 30.4035 49.5125 30.4938 49.714L31.855 52.7524C31.9499 52.9644 36.3732 52.6434 36.3732 52.6434L37.8282 54.0199C37.8282 54.0199 37.8798 58.4887 38.0865 58.5689L41.1993 59.7557C41.4104 59.8355 44.3127 56.4834 44.3127 56.4834L46.3187 56.4253C46.3187 56.4253 49.5113 59.5481 49.7176 59.4557L52.7525 58.096C52.9626 58.0019 52.6427 53.5795 52.6427 53.5795L54.0227 52.1207C54.0227 52.1207 58.4865 52.0722 58.5674 51.8648L59.7551 48.7544C59.8376 48.5368 56.4827 45.639 56.4827 45.639L56.4217 43.6349C56.4217 43.6349 59.5476 40.4386 59.4561 40.2345L58.0961 37.1988C58.003 36.9875 53.5828 37.3118 53.5828 37.3118ZM49.4098 42.9882C50.5043 45.4312 49.4058 48.3115 46.9614 49.4066C44.5196 50.5005 41.6364 49.4041 40.5419 46.9611C39.4475 44.5181 40.5497 41.6393 42.9915 40.5453C45.4378 39.451 48.3153 40.5452 49.4098 42.9882Z" fill="#646A70"/>
<circle cx="44.9756" cy="44.9753" r="5.8879" transform="rotate(-24.1326 44.9756 44.9753)" stroke="#D8D8D8" stroke-width="2"/>
<path d="M64.5208 49.375H63.4583V47.9583C63.4583 45.2243 61.2341 43 58.5 43C55.7659 43 53.5417 45.2243 53.5417 47.9583V49.375H52.4792C52.2834 49.375 52.125 49.5334 52.125 49.7292V58.5834C52.125 59.3647 52.7603 60 53.5417 60H63.4584C64.2397 60 64.875 59.3647 64.875 58.5833V49.7292C64.875 49.5334 64.7166 49.375 64.5208 49.375ZM59.5604 56.7734C59.5715 56.8734 59.5394 56.9737 59.4723 57.0487C59.4052 57.1238 59.309 57.1667 59.2084 57.1667H57.7917C57.691 57.1667 57.5949 57.1238 57.5278 57.0487C57.4607 56.9737 57.4285 56.8734 57.4396 56.7734L57.663 54.7643C57.3002 54.5004 57.0834 54.0829 57.0834 53.625C57.0834 52.8437 57.7187 52.2083 58.5 52.2083C59.2814 52.2083 59.9167 52.8437 59.9167 53.625C59.9167 54.0829 59.6999 54.5004 59.3371 54.7643L59.5604 56.7734ZM61.3333 49.375H55.6667V47.9583C55.6667 46.396 56.9377 45.125 58.5 45.125C60.0623 45.125 61.3333 46.396 61.3333 47.9583V49.375Z" fill="#C4C4C4"/>
</svg>
