<svg width="90" height="90" viewBox="0 0 90 90" fill="none" xmlns="http://www.w3.org/2000/svg">
<rect width="90" height="90" rx="2" fill="rgb(250, 249, 248)"/>
<path d="M55.8771 41.5603L55.1197 39.7223C55.1197 39.7223 56.8817 35.6616 56.7261 35.5055L54.393 33.1793C54.2318 33.0189 50.2548 34.8725 50.2548 34.8725L48.4205 34.116C48.4205 34.116 46.8002 30 46.5779 30H43.2859C43.0566 30 41.5573 34.1245 41.5573 34.1245L39.7258 34.8839C39.7258 34.8839 35.6654 33.1211 35.5097 33.2786L33.1808 35.6077C33.0196 35.7681 34.8733 39.7464 34.8733 39.7464L34.116 41.5816C34.116 41.5816 30 43.201 30 43.4196V46.7152C30 46.9452 34.1257 48.4454 34.1257 48.4454L34.883 50.2777C34.883 50.2777 33.121 54.3355 33.2753 54.4916L35.607 56.8236C35.7654 56.9811 39.7439 55.1275 39.7439 55.1275L41.5795 55.8868C41.5795 55.8868 43.1998 60 43.4235 60H46.7155C46.9433 60 48.4441 55.8755 48.4441 55.8755L50.2812 55.1161C50.2812 55.1161 54.3332 56.8789 54.4902 56.7242L56.822 54.3951C56.9846 54.2319 55.1267 50.2564 55.1267 50.2564L55.8826 48.4213C55.8826 48.4213 60 46.799 60 46.5776V43.2848C60.0014 43.0563 55.8771 41.5603 55.8771 41.5603ZM49.8101 44.9993C49.8101 47.6491 47.652 49.8065 45.0007 49.8065C42.3521 49.8065 40.1913 47.6491 40.1913 44.9993C40.1913 42.3494 42.3521 40.1949 45.0007 40.1949C47.6534 40.1963 49.8101 42.3494 49.8101 44.9993Z" fill="#646A70"/>
<circle cx="45" cy="45" r="5.42857" stroke="#D8D8D8" stroke-width="2"/>
</svg>
